<?xml version="1.0" standalone="no"?>
<!DOCTYPE svg PUBLIC "-//W3C//DTD SVG 1.1//EN" "http://www.w3.org/Graphics/SVG/1.1/DTD/svg11.dtd" >
<svg xmlns="http://www.w3.org/2000/svg" xmlns:xlink="http://www.w3.org/1999/xlink" version="1.1">
<metadata></metadata>
<defs>
<font id="therootsregular" horiz-adv-x="2252" >
<font-face units-per-em="2048" ascent="1638" descent="-410" />
<missing-glyph horiz-adv-x="500" />
<glyph horiz-adv-x="0" />
<glyph unicode="&#xd;" />
<glyph unicode=" " />
<glyph unicode="&#x3e;" />
<glyph unicode="A" d="M2154 -418h-2056v2056h2056v-2056zM1737 223v6h-13v13h-6v-13h-10v-6h10v-10h6v10h13zM1833 33l-2 6q-49 -29 -107 -29q-72 0 -129 44t-77 114q106 111 139 260q33 10 67 10q51 0 97 -22l4 6q-49 23 -101 22q-33 0 -65 -10q12 57 12 117q0 217 -146.5 376.5t-359.5 180.5 q2 14 2 29q0 47 -32.5 80.5t-79.5 33.5t-81 -33.5t-34 -80.5q0 -27 12 -50q-176 -53 -287.5 -200.5t-111.5 -335.5q0 -51 8 -102q-10 2 -22 2q-68 0 -127 -41l2 -7q59 41 125 41q12 0 24 -2q35 -178 170 -303q-57 -123 -194 -123q-61 0 -115 31l-4 -4q55 -33 119 -33 q16 0 32 2l-12 -4v-24h430v24q-23 4 -69 10q8 0 16 2q84 -29 176 -28q63 0 123 14v-22h461v22q14 -2 28 -2q60 0 109 29zM549 227v6h-12v11h-7v-11h-10v-6h10v-10h7v10h12zM1161 1137q0 -14 -4 -29q-23 2 -45 2q-80 0 -154 -20q-12 23 -12 47q0 45 32 76.5t77 31.5 t75.5 -31.5t30.5 -76.5zM1157 1102q-2 -2 -4 -6q-35 -41 -84 -66h-14q-63 0 -94 53q74 20 151 21q22 0 45 -2zM1665 551q0 -59 -12 -119q-66 -23 -108 -80t-42 -129q0 -23 6 -43l-6 15l-340 907q211 -18 356.5 -177t145.5 -374zM1651 426q-33 -143 -135 -252q-4 25 -5 49 q0 68 39.5 123t100.5 80zM1235 502h-303l143 399zM1061 1024h-6q-68 0 -101 57q-174 -51 -284.5 -197.5t-110.5 -332.5q0 -51 10 -102q80 -10 135.5 -73t55.5 -147q0 -14 -2 -28l272 710q6 20 21 58q6 31 -7 51q10 4 17 6v-2zM1356 106q0 -29 -19 -53q-6 -8 -14 -14 q-39 -14 -78 -25q-84 12 -84 99q0 39 29 67.5t70 28.5q76 0 94 -74q2 -13 2 -29zM1348 168q-31 47 -88 47q-45 0 -75 -29.5t-30 -72.5q0 -80 76 -103q-59 -12 -119 -12q-86 0 -166 27q72 23 72 98q0 43 -30 73.5t-75 30.5q-66 0 -94 -61q16 82 88 262h350q38 -92 91 -260z M1012 123q0 -78 -76 -96q-57 20 -109 51q-10 20 -10 45q0 41 28.5 69.5t67.5 28.5q41 0 70 -28.5t29 -69.5zM754 229q0 -43 -19 -84q-131 123 -166 297q78 -12 131.5 -72.5t53.5 -140.5zM922 25h-9q-49 0 -77 41q41 -25 86 -41zM817 84v0l-2 4zM1069 1135v6h-12v12h-6v-12 h-11v-6h11v-11h6v11h12zM1270 109v6h-10v10h-7v-10h-10v-6h10v-11h7v11h10zM924 121v6h-11v12h-6v-12h-10v-6h10v-10h6v10h11z" />
<glyph unicode="B" d="M2154 -418h-2056v2056h2056v-2056zM1747 618q0 252 -175 432.5t-427 192.5q-150 6 -197 4l-373 -14v-35q41 -6 72 -12q-55 -4 -94 -45t-39 -97q0 -76 64 -118q-80 -143 -80 -308q0 -172 88 -319q-74 -41 -74 -125q0 -55 40 -97t95 -44q-33 -8 -82 -15v-30l508 -4 q90 0 160 8q274 35 346 201q168 179 168 425zM1741 618q0 -233 -154 -409q16 49 17 108q0 246 -408 332v4q328 80 328 287q0 193 -209 266q188 -61 307 -223t119 -365zM1337 913q0 -258 -381 -258v543q162 0 261 -61q120 -74 120 -224zM788 1010q-25 -102 -131 -103 q-39 0 -71 21q37 61 86 114h2v2q41 43 90 78q22 -34 24 -112zM662 1042v-2v2v0zM760 1128q-49 -37 -92 -79h-6v12h-7v-12h-12v-7h12v-10q-43 -47 -73 -100q-61 39 -62 112q0 55 40 95.5t97 40.5h19q59 -19 84 -52zM1403 297q0 -121 -75 -192.5t-193 -71.5q-92 0 -131 41 t-46 129q-2 20 -2 102v307l70 4q182 10 291 -112q86 -96 86 -207zM791 291v-70q-33 96 -136 96q-35 0 -65 -14q-86 145 -86 315q0 162 80 304q33 -20 73 -21q96 0 134 90v-63v-637zM788 201q-4 -59 -18 -90q-109 74 -176 186q29 14 61 14q49 0 87 -31.5t46 -78.5zM766 104 q-23 -43 -90 -63q-10 -2 -21 -2q-57 0 -97 40t-40 95q0 80 70 119q69 -113 178 -189zM1190 932v6h-12v14h-7v-14h-12v-6h12v-12h7v12h12zM1135 936v8h-15v12h-6v-12h-12v-8h12v-10h6v10h15zM1206 309v6h-14v15h-6v-15h-12v-6h12v-12h6v12h14zM1149 324v6h-12v12h-7v-12h-12 v-6h12v-13h7v13h12zM674 172v6h-12v15h-7v-15h-12v-6h12v-12h7v12h12z" />
<glyph unicode="C" d="M2154 -418h-2056v2056h2056v-2056zM1751 618q0 223 -139 398v131q-156 96 -387 96h-17q-43 4 -86 4q-260 0 -444 -184t-184 -445q0 -305 227 -485q188 -150 487 -149q211 0 365 75q45 104 72 209q106 157 106 350zM1745 618q0 -180 -94 -331q12 49 20 96l-26 12l-7 -16 q4 29 4 57q0 121 -65 223q18 63 18 132q0 31 -4 63h21v152q133 -171 133 -388zM1589 791q0 -63 -18 -125q-16 27 -39 49q2 14 2 28q0 180 -126 310.5t-308 134.5q57 12 119 12q84 0 151 -31q102 -59 160.5 -160t58.5 -218zM1569 657q-43 -135 -156 -219q106 113 119 269 q21 -23 37 -50zM1528 743q0 -12 -2 -22q-119 123 -291 123q-156 0 -270.5 -102.5t-135.5 -252.5q-92 100 -112 234q23 168 116 292t242 167h12q182 2 311.5 -127.5t129.5 -311.5zM1163 1241q-274 -16 -454 -174q-164 -143 -203 -354q35 225 209 376.5t407 151.5h41z M1526 713q-12 -176 -144 -295q-106 -68 -231 -68q-186 0 -315 133q18 150 131.5 252.5t267.5 102.5q172 0 291 -125zM1636 436q0 -41 -8 -82q-76 -174 -164 -248q-102 -74 -229 -73q-150 0 -262.5 98t-134.5 244q113 -78 249 -78q172 0 299 115q137 86 187 239 q63 -98 63 -215zM1356 395q-119 -92 -269 -92q-137 0 -251 80q-2 27 -2 53q0 18 2 39q129 -131 315 -131q109 0 205 51zM829 387q-63 47 -108 115q-12 61 -12 125q0 37 4 75q27 -127 116 -221q-2 -23 -2 -45q0 -24 2 -49zM1067 63q-123 51 -216 163t-126 259 q43 -61 106 -106q31 -224 236 -316zM993 8q-63 14 -123 39q60 -23 123 -39zM1165 786v7h-12v12h-6v-12h-12v-7h12v-12h6v12h12zM1270 664v6h-13v14h-6v-14h-12v-6h12v-13h6v13h13zM1102 743v7h-15v12h-6v-12h-10v-7h10v-12h6v12h15zM1139 614v7h-15v14h-6v-14h-12v-7h12v-12 h6v12h15zM1231 432v6h-14v15h-7v-15h-12v-6h12v-10h7v10h14z" />
<glyph unicode="D" d="M2154 -418h-2056v2056h2056v-2056zM1808 614q0 362 -303 535v-2q-8 4 -16 10v2q-162 86 -318 86h-22q-82 6 -176 2l-416 -14v-29q20 -4 37 -6q-66 -2 -112 -49t-46 -113t47 -112.5t115 -46.5q-57 -123 -57 -263q0 -137 57 -262q-66 -2 -111 -48t-45 -111q0 -66 47.5 -113 t112.5 -47h12q-31 -6 -71 -13v-28l516 -6q29 0 57 2q8 -2 55 -2q180 0 349 104v2q6 6 14 10l2 -2q272 178 272 514zM948 1204q-18 -6 -35 -14v14v0h35zM1608 584q0 -283 -158 -432q-127 -117 -303 -117q-147 0 -199 74q-35 51 -35 165v910l54 20q281 -8 450 -157 q191 -164 191 -463zM750 1079l-2 -2v0zM750 1036q0 -59 -41 -103t-101 -50q51 109 137 188q5 -17 5 -35zM745 1079q-92 -84 -145 -196q-66 0 -112 44t-46 109q0 63 45 108.5t109 45.5q116 0 149 -111zM606 881h-4l2 2zM758 293v-60q-14 51 -56.5 85t-97.5 34 q-57 125 -57 262q0 139 57 263q61 4 104.5 47t47.5 102q2 -31 2 -96v-637zM756 203q0 -29 -4 -49q-92 84 -144 192q59 -2 102.5 -43t45.5 -100zM750 147l-2 -6q-37 -102 -146 -102q-63 0 -108 45t-45 109q0 63 45 108t106 45q56 -115 150 -199zM1235 606v6h-12v15h-9v-15 h-10v-6h10v-12h9v12h12zM1190 608v6h-14v15h-7v-15h-12v-6h12v-10h7v10h14zM614 1034v6h-12v15h-6v-15h-12v-6h12v-12h6v12h12zM618 193v6h-14v14h-6v-14h-12v-6h12v-13h6v13h14z" />
<glyph unicode="E" d="M2154 -418h-2056v2056h2056v-2056zM1778 616q0 297 -228 486l11 145h-369h-23.5h-22.5h-22.5h-21.5h-543v-35q31 -2 55 -6q-63 -6 -105 -52t-42 -110q0 -117 111 -153q-63 -129 -64 -275q0 -145 64 -276q-106 -39 -107 -152q0 -68 47 -115.5t115 -45.5h4q-33 -8 -78 -15 v-28h1038q39 129 54 252q127 167 127 380zM1487 1024q0 -92 -80 -137q-14 51 -57 85t-99 34q-37 0 -71 -17q-2 16 -2 35q0 63 45 108.5t108 45.5q66 0 111 -45.5t45 -108.5zM1401 885q-33 -16 -70 -17q-53 0 -94 32t-55 83q33 16 69 16q53 0 95.5 -32.5t54.5 -81.5z M1407 844q0 -63 -46 -109.5t-110 -46.5q-63 0 -109 46t-46 110q0 92 80 135q14 -51 58 -84t97 -33q39 0 72 17q4 -19 4 -35zM1333 1184h-2q-66 2 -113 -46t-47 -114q0 -20 5 -37q-86 -47 -86 -143q0 -68 47 -115t114 -47h11q-39 -6 -115 -6h-189v522h181q137 0 194 -14z M1772 616q0 -205 -121 -368q6 49 8 104h-35q-31 -170 -122 -243.5t-267 -73.5q-166 0 -221.5 51t-55.5 203v303h189h72q-55 -12 -92 -56t-37 -104q0 -66 47 -114t114 -48q68 0 115 48.5t47 113.5v8q0 -6 2 -12h27v418h-27q-2 -8 -2 -17v15q0 18 -4 37q84 45 84 143 q0 12 -2 25q14 -39 16 -93h33l10 138q222 -187 222 -478zM784 1044q0 -63 -46 -109t-109 -46q-23 0 -43 6q66 131 182 219q16 -33 16 -70zM1407 432q0 -63 -46 -109.5t-110 -46.5q-63 0 -109 46.5t-46 109.5q0 66 46 112t109 44h6q31 -4 50 -10q100 -35 100 -146zM764 1120 q-119 -90 -184 -223q-106 35 -107 147q0 66 45 111t111 45q92 0 135 -80zM793 289q0 -45 -2 -68q-10 55 -55.5 92t-102.5 37q-25 0 -49 -8q-63 129 -64 274q0 143 64 273q23 -6 45 -6q61 0 107 41t52 102q4 -35 5 -82v-655zM788 188q0 -39 -18 -71q-117 88 -182 219 q20 8 45 8q63 0 109 -46.5t46 -109.5zM768 111q-45 -78 -135 -78q-66 0 -111 45t-45 110q0 109 105 146q65 -133 186 -223zM1348 1022v6h-13v12h-6v-12h-12v-6h12v-12h6v12h13zM1268 840v6h-15v14h-6v-14h-12v-6h12v-13h6v13h15zM1268 432v6h-15v13h-6v-13h-12v-6h12v-12h6 v12h15zM641 1040v7h-12v14h-6v-14h-13v-7h13v-12h6v12h12zM649 186v7h-14v12h-6v-12h-13v-7h13v-12h6v12h14z" />
<glyph unicode="F" d="M2154 -418h-2056v2056h2056v-2056zM1780 616q0 276 -203 463l16 170h-987v-35q76 -8 119 -22q-16 4 -33 4q-57 0 -98 -41t-41 -98q0 -70 55 -111q-92 -152 -92 -330q0 -123 45 -237q-96 -53 -96 -164q0 -80 56.5 -135t133.5 -55h21q-31 -6 -70 -13v-28h664v12 q219 43 364.5 218t145.5 402zM1522 997q0 -90 -72 -145q-37 82 -127 82q-76 0 -117 -66q-53 53 -53 129t54.5 129.5t129.5 53.5q76 0 130.5 -53.5t54.5 -129.5zM1444 848q-47 -35 -107 -35q-74 0 -127 51q39 63 113 64q88 0 121 -80zM1360 1186q-10 2 -23 2 q-78 0 -134 -56.5t-56 -134.5t55 -135q-18 -31 -18 -67q0 -57 41 -98.5t98 -41.5h8q-43 -8 -125 -8h-198v553h161q132 0 191 -14zM1456 795q0 -55 -39 -94t-94 -39t-93 38.5t-38 94.5q0 35 16 63q47 -43 111 -51v-10h-12v-6h12v-13h6v13h12v6h-12v10h12q61 0 111 35 q8 -22 8 -47zM1774 616q0 -225 -143.5 -397t-360.5 -215v8q-115 18 -166 41q18 -6 37 -6q57 0 97 41t40 98t-40 98.5t-97 41.5q-100 0 -133 -95v58v276h198q84 0 113 -2q-53 -6 -89 -45t-36 -92q0 -57 40 -98t97 -41q55 0 94 35.5t45 89.5q2 -12 3 -25h28v455h-28 q-4 -43 -13 -74q2 14 2 27q0 27 -10 51q70 51 76 137q2 -14 2 -31h33l12 121q199 -187 199 -457zM1464 426q0 -55 -39 -94t-94 -39q-53 0 -92 39t-39 94q0 53 39 92t92 39q55 0 94 -39t39 -92zM823 1057q0 -55 -39 -94t-92 -39q-41 0 -76 24q33 49 74 94h4v7l6 6h9v6h-2 q43 41 92 74q24 -35 24 -78zM795 1141q-51 -35 -97 -80h-4v12h-6v-12h-12v-6h12v-4q-43 -45 -76 -99q-53 39 -53 105q0 55 39 94t94 39q62 0 103 -49zM838 266q-16 59 -66.5 98t-116.5 39q-47 0 -88 -20q-45 111 -45 233q0 176 92 326q35 -25 78 -24q57 0 97 40.5t40 98.5 q0 10 -2 20q12 -47 13 -133zM1272 186q0 -55 -39 -93t-92 -38q-74 0 -113 60q-16 33 -18 94v0q8 47 45 78.5t86 31.5q53 0 92 -39t39 -94zM838 236q0 -43 -4 -70q-10 -37 -35 -68q-74 49 -129 115v4h-4q-59 72 -97 160q41 20 86 20q72 0 123.5 -45.5t59.5 -115.5zM657 217 h-2v2zM795 92q-55 -61 -140 -61q-76 0 -130 53t-54 131q0 106 92 158q33 -78 86 -146v-10h-12v-6h12v-12h6v12h9q57 -68 131 -119zM1354 991v6h-15v13h-6v-13h-12v-6h12v-12h6v12h15zM1350 420v6h-15v14h-6v-14h-12v-6h12v-12h6v12h15zM1159 184v6h-14v13h-6v-13h-13v-6h13 v-12h6v12h14z" />
<glyph unicode="G" d="M2154 -418h-2056v2056h2056v-2056zM1821 623q0 319 -260 507l2 46q-117 39 -199 49q-90 23 -168 22q-37 0 -72 -4q-287 -6 -487 -178q-213 -184 -213 -469q0 -281 203 -451q190 -162 479 -161q227 0 541 131v32h-48l54 48q43 45 88 118q70 41 69 115q0 23 -6 43 q17 74 17 152zM1815 623q0 -72 -15 -142q-8 16 -20 31q10 53 10 106q0 287 -229 459v45q254 -186 254 -499zM1782 618q0 -51 -8 -100q-35 37 -86 39v27h-199q51 92 51 198q0 39 -8 78h27l2 209q221 -170 221 -451zM1804 428q0 -70 -57 -104q35 66 53 135q4 -15 4 -31z M1796 471q-20 -82 -61 -154q-18 -8 -39 -12q59 92 82 199q12 -15 18 -33zM1772 510q-20 -111 -84 -205h-7q-51 -2 -86.5 35t-35.5 90v0q0 14 4 29v-2q20 94 118 94q56 0 91 -41zM1202 1192q-158 -4 -290 -84t-197 -211q37 133 148.5 218t252.5 85q43 0 86 -8zM1683 299 q-51 -76 -124 -133v227q27 -96 122 -94h2zM1534 782q0 -106 -51 -198h-326v-27l60 -10q-63 -6 -107.5 -54.5t-42.5 -109.5l2 -14q-158 18 -264.5 137t-106.5 276q0 170 179 293q162 111 340 111q123 0 225 -144q92 -129 92 -260zM1731 309q-53 -92 -136 -162h-36v11 q78 59 133 141q21 2 39 10zM1374 455q-55 -43 -125 -66h-12v12h-6v-12h-12v-8h12q-55 -14 -115 -14q-20 0 -41 2l-2 14q-2 63 46 110.5t114 47.5q47 0 65 -15q2 0 9 -2q42 -22 67 -69zM936 1167q-190 -90 -234 -295q-59 -119 -59 -254q0 -76 19 -149q-27 94 -27 197 q0 176 80 310t221 191zM1393 383q0 -66 -47.5 -113t-112.5 -47q-59 0 -104.5 40t-53.5 99q80 -8 156 13v-4h6v6q78 23 141 74q15 -33 15 -68zM1397 188q0 -94 -31 -116q-74 -20 -149 -21q-236 0 -402 167t-166 400q0 121 49 230q-6 -31 -6 -66q0 -160 108.5 -280.5 t268.5 -139.5q6 -61 54 -103t110 -42q59 0 105 38t57 95q2 -16 2 -35v-127zM1698 426v6h-12v12h-7v-12h-12v-6h12v-12h7v12h12zM1214 743v7h-12v14h-6v-14h-12v-7h12v-12h6v12h12zM1133 778v6h-13v15h-6v-15h-12v-6h12v-12h6v12h13zM1229 618v7h-15v12h-6v-12h-12v12h-6v-12 h-12v-7h12v-12h6v12h12v-12h6v12h15zM1063 709v6h-12v14h-7v-14h-12v-6h12v-13h7v13h12zM1040 618v7h-14v12h-6v-12h-12v-7h12v-12h6v12h14z" />
<glyph unicode="H" d="M2154 -418h-2056v2056h2056v-2056zM1823 160q0 61 -43 103t-105 40q82 145 82 313q0 166 -80 310q59 -4 102.5 40t43.5 103q0 53 -35 94t-88 47l14 4v37h-497v-8q-45 6 -93 6q-49 0 -96 -6v8h-498v-37q10 -2 23 -4q-55 -6 -93 -47t-38 -96q0 -59 42 -102t101 -41h6 q-80 -143 -79 -308q0 -168 81 -313q-61 4 -106 -39t-45 -104q0 -55 36 -95t89 -49q-8 0 -17 -2v-32h498v8q49 -6 96 -6t93 6v-8h497v32q-8 2 -16 2q53 8 89 48.5t36 95.5zM1815 1069q0 -55 -40 -94t-96 -39h-8q-49 86 -125 151q8 51 46 83t87 32q55 0 95.5 -39t40.5 -94z M1661 936q-49 8 -82 45t-33 88v8q68 -63 115 -141zM1403 1065q0 -55 -39 -95t-94 -40q-57 0 -96 40t-39 95t38.5 94t96.5 39q55 0 94 -39t39 -94zM1749 616q0 -170 -86 -313q-109 -14 -125 -117q-2 25 -2 103v655q0 78 2 103q8 -47 44 -82t85 -39q82 -144 82 -310zM1407 944 v-266h-569v266v80q31 -102 137 -102q61 0 103 42t42 101q0 55 -36.5 95t-90.5 46q16 4 35 8v19q47 8 96 8q47 0 93 -8v-19q18 -4 34 -8q-53 -6 -90 -46t-37 -95q0 -59 42 -101t104 -42q106 0 137 102v-80zM1110 1065q0 -55 -39 -95t-96 -40q-55 0 -94 40t-39 95t39 94t94 39 q57 0 96 -39t39 -94zM1815 160q0 -55 -40 -95t-96 -40q-10 0 -22 2q-43 14 -64 30q-41 33 -47 86q74 66 123 150h10q55 4 95.5 -37t40.5 -96zM1657 291q-45 -74 -111 -135v4q-2 49 31 86t80 45zM698 1067q2 -49 -30.5 -87t-79.5 -46q45 78 110 139v-6zM698 1083 q-74 -66 -123 -149q-6 -2 -10 -2q-55 0 -95 40t-40 95t40 94t95 39q51 0 89 -33t44 -84zM1403 162q0 -53 -30 -84t-95 -49q-4 -2 -8 -2q-57 0 -96 39.5t-39 95.5q0 55 38.5 94t96.5 39q55 0 94 -39t39 -94zM1407 289v-86q-31 102 -137 102q-61 0 -103.5 -42t-42.5 -101 q0 -53 35 -93t86 -49q-12 -4 -28 -6v-14q-45 -8 -93 -8q-49 0 -96 8v14q-16 2 -29 6q51 8 86 48.5t35 93.5q0 59 -42 101t-103 42q-106 0 -137 -102v86v301h569v-301zM705 289v-90q-27 88 -119 102q-86 145 -86 315q0 166 82 308q98 12 123 104v-84v-655zM1110 162 q0 -55 -39 -95t-96 -40q-4 0 -8 2q-125 33 -125 133q0 55 39 94t94 39q57 0 96 -39t39 -94zM698 160q-61 59 -106 131q106 -22 106 -131zM698 147q-8 -88 -112 -120q-10 -2 -21 -2q-55 0 -95 39.5t-40 95.5q0 55 40 94t95 39h15q48 -83 118 -146zM1649 1200q-16 -4 -33 -12 q15 6 33 12zM1696 1061v10h-15v12h-8v-12h-12v-10h12v-12h8v12h15zM1282 1061v10h-14v12h-8v-12h-13v-10h13v-12h8v12h14zM989 1059v10h-14v12h-8v-12h-13v-10h13v-12h8v12h14zM1694 156v10h-15v12h-8v-12h-12v-10h12v-13h8v13h15zM582 1065v10h-13v15h-10v-15h-12v-10h12 v-10h10v10h13zM1397 121q-8 -25 -25 -45q17 18 25 45zM1284 156v10h-12v12h-10v-12h-13v-10h13v-13h10v13h12zM991 154v10h-14v12h-8v-12h-13v-10h13v-13h8v13h14zM872 76q-16 20 -24 43q8 -25 24 -43zM580 156v10h-13v12h-10v-12h-12v-10h12v-13h10v13h13z" />
<glyph unicode="I" d="M2154 -418h-2056v2056h2056v-2056zM1755 618q0 195 -108.5 353.5t-284.5 230.5q31 6 76 12v37h-627v-37q43 -6 72 -12q-174 -72 -283 -227q-111 -162 -111 -357q0 -199 112 -359.5t290 -229.5q-31 -8 -80 -15v-32h627v32q-49 8 -84 15q178 72 289.5 231t111.5 358z M1358 1194q-8 2 -17 2q-4 0 -8 -2q6 2 13 4zM1456 1069q0 -47 -33.5 -82t-81.5 -35q-49 0 -82.5 35t-33.5 82q0 49 33.5 83t82.5 34q47 0 81 -34t34 -83zM901 1200h-2h2v0zM1745 618q0 -172 -86 -317t-232 -227q37 39 37 90t-36.5 88t-88.5 37q-51 0 -86.5 -34t-40.5 -83 q-4 41 -4 117v655q0 82 6 123q0 -51 37 -87t90 -36q51 0 88 37t37 88q0 53 -39 92q145 -82 231.5 -227.5t86.5 -315.5zM1026 1073q0 -47 -34 -82t-81 -35q-49 0 -82.5 35t-33.5 82q0 49 33.5 83t82.5 34q47 0 81 -34t34 -83zM1454 164q0 -49 -34 -83t-81 -34q-49 0 -82.5 34 t-33.5 83q0 47 33.5 82t82.5 35q47 0 81 -35t34 -82zM1042 289q0 -86 -8 -129q0 51 -36.5 88t-88.5 37q-53 0 -90 -37t-37 -88q0 -47 31 -82q-143 82 -228 225t-85 315t88 317.5t235 227.5q-39 -37 -39 -90q0 -51 37 -88t90 -37q47 0 84 33t41 80q6 -39 6 -117v-655z M1024 160q0 -49 -34 -83t-81 -34q-49 0 -82.5 34t-33.5 83q0 47 33.5 81.5t82.5 34.5q47 0 81 -34.5t34 -81.5zM909 33h-2v0h2v0zM1356 1065v8h-13v14h-10v-14h-12v-8h12v-12h10v12h13zM926 1071v8h-13v15h-10v-15h-12v-8h12v-12h10v12h13zM1358 156v10h-12v12h-11v-12h-12 v-10h12v-13h11v13h12zM922 154v10h-15v12h-8v-12h-12v-10h12v-13h8v13h15z" />
<glyph unicode="J" d="M2154 -418h-2056v2056h2056v-2056zM1749 629q0 199 -113.5 358.5t-300.5 224.5q25 4 58 9v28h-512v-28q29 -4 51 -9q-184 -63 -301 -223t-115 -360v-11q-143 -106 -143 -282q0 -145 102.5 -246.5t245.5 -101.5q63 0 123 20l12 -24q66 29 111 51q82 -23 166 -23 q256 0 436 180.5t180 436.5zM1425 1100q0 -43 -30.5 -74t-73.5 -31t-72.5 31t-29.5 74t29.5 73.5t72.5 30.5t73.5 -30.5t30.5 -73.5zM1067 1098q0 -43 -30.5 -74t-73.5 -31t-74 31t-31 74t31 73.5t74 30.5t73.5 -30.5t30.5 -73.5zM1743 629q0 -252 -179.5 -431.5 t-430.5 -179.5q-80 0 -158 21q154 76 199 164q39 78 38 272v529q0 51 2 75q16 -90 107 -90q45 0 78 33t33 78q0 47 -35 80q156 -76 251 -223.5t95 -327.5zM1077 541q0 -121 -6 -187q-6 137 -107.5 233.5t-242.5 96.5q-109 0 -199 -61q-2 203 114 364.5t308 222.5q2 -2 8 -4 q-33 0 -63 -28q-37 -33 -37 -80q0 -45 33 -78t78 -33t77.5 33t32.5 78v6q4 -29 4 -100v-463zM1065 336q0 -176 -145 -279q-172 63 -283 215t-115 342q88 63 199 64q143 0 243.5 -100.5t100.5 -241.5zM913 51q-86 -57 -192 -57q-141 0 -241.5 100.5t-100.5 241.5 q0 170 137 274q6 -190 115.5 -341.5t281.5 -217.5zM1337 1102v6h-12v12h-6v-12h-12v-6h12v-12h6v12h12zM975 1094v6h-12v12h-7v-12h-12v-6h12v-13h7v13h12zM735 336v6h-12v12h-6v-12h-12v-6h12v-12h6v12h12z" />
<glyph unicode="K" d="M637 1094l2 -7h-2v7zM639 1065v2v12l2 2l4 -28zM639 1079v-14q0 -49 -33 -84t-80 -39q45 76 113 137zM635 1102q2 -8 2 -15q-70 -66 -119 -147h-4q-51 0 -89 37t-38 90q0 51 37 88t90 37q39 0 70 -18l4 -3q45 -27 49 -77zM532 1065v6h-12v12h-6v-12h-12v-6h12v-12h6v12 h12zM514 1200q47 -10 68 -24q-15 8 -68 24zM2099 774v2q0 4 2 6v-4v-6zM2154 717q0 1772 0 -107v-219q0 -184 0 -158q-129 -195 -360 -194q-186 0 -313 135q193 184 192 451q0 80 -20 155h6v-12q4 4 6 12h12v6h-12v13h-6v-13h-6l-29 80q82 35 170 35q176 0 305 -127 q0 -176 -128 -301t-304 -125v-6q178 0 306 125t132 301q27 -29 49 -61v10zM1810 467v6h-12v12h-6v-12h-12v-6h12v-12h6v12h12zM1663 350h-18l-31 2l-2 -6l33 -4h18v8zM514 934q-84 -143 -84 -309q0 -168 86 -312h-6q-53 2 -93 -37.5t-40 -95.5q0 -53 39 -92t92 -39 q-35 -8 -82 -14v-29h582q8 0 22 -2h23q158 0 299 78q141 -78 399 -98l12 28q-55 14 -110 43q70 -23 141 -22q229 0 360 188v-639h-2056v2056h2056v-921q-23 33 -49 59q0 182 -128 311.5t-310 129.5q-23 0 -45 -3q8 0 16 3v32h-477v-12q-55 8 -108 8h-45v4h-582v-32 q31 -4 90 -17h-2q2 -2 0 -2q-55 0 -94 -39t-39 -92q0 -55 39 -94t94 -39v0zM522 934h-8l4 6l8 2zM647 287q0 -76 -6 -113q6 51 -30 92t-87 47q-86 143 -86 312q0 166 84 309q47 4 82 35.5t41 79.5q2 -31 2 -78v-684zM2099 784q-127 123 -305 123q-90 0 -172 -37 q-68 158 -207 258q113 82 252 82q176 0 303 -125t129 -301zM1616 868q-115 -51 -185.5 -156.5t-72.5 -232.5q-121 125 -121 299q0 217 174 346q137 -100 205 -256zM1667 625q0 -145 -63 -273q-139 20 -240 121q0 127 72 236q70 102 182 153q49 -114 49 -237zM1075 1075 q0 -51 -37 -88t-88 -37t-89 37t-38 88q0 53 38 89t89 36t88 -37t37 -88zM969 1075v6h-13v13h-6v-13h-12v-6h12v-12h6v12h13zM1460 186q-113 96 -260 263q-106 123 -213 245l156 176q106 117 188 187q-100 -121 -100 -279q0 -180 127 -307q-2 -162 102 -285zM1599 348 q-47 -96 -124 -170q-113 123 -113 289q100 -101 237 -119zM1346 84q-135 -72 -289 -74v25q-96 12 -139 26q16 -4 32 -4q53 0 92 39t39 94q0 53 -38.5 92.5t-92.5 39.5q-51 0 -90 -36t-41 -87q-6 35 -6 86v663q0 88 4 121q2 -51 41 -88t92 -37t92 38t39 93q0 53 -35.5 91 t-89.5 40q23 6 52 11v22h45q53 0 108 -8v-14q16 -2 29 -5q6 2 14 2q27 0 47.5 -20t20.5 -47q0 -33 -27 -53q-49 -94 -219 -281q-94 -102 -190 -205q141 -162 282 -323q124 -142 228 -201zM1266 1151q0 27 -23 43q20 -16 23 -43v0zM1266 1147v4q-2 -16 -11 -39q11 17 11 35z M1221 1145v8h-15v12h-6v-12h-10v-8h10v-10h6v10h15zM1255 1112q-18 -27 -51 -27q-61 0 -61 62q0 61 61 61q6 0 13 -2q-12 4 -27 6q-53 -12 -53 -65q0 -29 19.5 -48.5t47.5 -19.5q23 0 41 15q6 10 10 18zM1075 190q0 -53 -37 -90t-88 -37t-89 37t-38 90q0 51 38 88t89 37 t88 -37t37 -88zM975 180v6h-14v15h-7v-15h-12v-6h12v-10h7v10h14zM635 182q0 -51 -37 -89t-88 -38t-88 38t-37 89t37 88t88 37t88 -37t37 -88zM516 180v6h-12v15h-6v-15h-13v-6h13v-10h6v10h12z" />
<glyph unicode="L" d="M2154 -418h-2056v2056h2056v-2056zM1765 614q0 250 -169 431.5t-416 199.5v4h-627v-35q41 -4 72 -10q-61 -2 -103.5 -46t-42.5 -105q0 -104 99 -142q-74 -139 -74 -297q0 -156 71 -292q-96 -39 -96 -142q0 -63 45 -108t107 -43h6q-33 -8 -84 -17v-28h1040l107 348h-2 q67 132 67 282zM1243 1053q0 -59 -42 -102.5t-103 -43.5q-59 0 -102.5 43t-43.5 105q12 111 123 141q10 2 23 2q61 0 103 -42t42 -103zM1759 614q0 -147 -67 -280l-21 10q-68 -113 -67 -113q-41 -63 -78 -102q-55 -45 -117 -76q-76 -23 -203 -14l-227 16q-29 90 -29 283v606 v76q12 -51 53 -85t95 -34q63 0 107 44t44 108q0 59 -41 103t-100 48q31 6 72 10v23q244 -16 411.5 -195.5t167.5 -427.5zM776 1053q0 -59 -42 -102.5t-103 -43.5q-23 0 -45 8q66 119 176 201q14 -28 14 -63zM760 1122q-113 -84 -180 -204q-94 35 -95 135q0 61 43 103t103 42 q86 0 129 -76zM784 289q0 -63 -2 -94q-6 57 -49 97t-102 40q-25 0 -49 -8q-72 137 -72 290q0 158 74 295q23 -8 47 -8q59 0 102 40t49 97q2 -31 2 -94v-655zM776 180q0 -35 -14 -65q-111 82 -176 202q23 8 45 9q61 0 103 -43.5t42 -102.5zM758 109q-41 -74 -127 -74 q-59 0 -102.5 42t-43.5 103q0 100 95 135q65 -122 178 -206zM1114 1053v6h-12v12h-6v-12h-13v-6h13v-13h6v13h12zM1153 612v6h-14v13h-6v-13h-13v-6h13v-12h6v12h14zM647 1053v6h-12v12h-6v-12h-13v-6h13v-13h6v13h12zM645 180v6h-12v13h-6v-13h-13v-6h13v-12h6v12h12z" />
<glyph unicode="M" d="M2154 -418h-2056v2056h2056v-2056zM2077 166q0 59 -41 101t-101 42q-53 0 -93 -34.5t-46 -88.5q-6 43 -14 160l-41 674v14q8 -49 47 -81.5t90 -32.5q59 0 100 42t41 99q0 59 -41 100t-100 41h-8q25 8 55 12v35h-409l-7 -32q23 -14 23 -52q0 -55 -51 -168l-35 -75 q-82 147 -229.5 236t-323.5 89q-61 0 -123 -12l-4 14h-399v-35q41 0 73 -10q-4 2 -8 2q-59 0 -100 -42t-41 -101q0 -76 63 -119q-92 -150 -92 -330q0 -164 80 -307q-16 4 -33 4q-59 0 -100 -42t-41 -99q0 -59 41 -101t100 -42q12 0 23 2q-27 -8 -64 -17v-28h518v8 q53 -8 107 -8q84 0 166 22l8 -22h23l16 36q129 47 227 144q4 -55 43 -94t94 -39q-25 -6 -84 -19v-28h617v28q-35 8 -59 15q55 2 94 42t39 97zM2011 1061q0 -55 -39 -94t-94 -39t-94 39t-39 94t39 95t94 40t94 -40t39 -95zM1614 199q-10 49 -49 81.5t-90 32.5q-14 0 -29 -4 q78 143 78 305q0 123 -45 236l80 176h4l51 -809v-18zM2068 166q0 -55 -38.5 -94t-94.5 -39q-14 0 -30 4q-102 35 -103 129q0 55 39 95t94 40t94 -40t39 -95zM1442 913l-297 -651l-352 780q-37 84 -37 136q0 33 16 49q59 12 121 12q174 0 321.5 -89.5t227.5 -236.5zM1518 614 q0 -197 -114 -356.5t-294 -226.5l365 809q43 -109 43 -226zM1608 172q0 -55 -39 -95t-94 -40t-94.5 39t-39.5 94q57 59 99 131q18 4 35 4q55 0 94 -39t39 -94zM565 1063q0 -55 -39 -94t-94 -39q-37 0 -67 18q72 111 180 185q20 -31 20 -70zM541 1141q-111 -76 -183 -189 q-61 39 -61 111q0 55 40 95t95 40q70 0 109 -57zM1055 12q-80 -20 -162 -20q-53 0 -107 8v12q-63 12 -108 31q12 -2 24 -2q57 0 99.5 41t42.5 100t-42 100.5t-100 41.5q-104 0 -135 -101q12 281 60 756zM565 1018l-18 -223l-72 -525q-8 -68 -18 -100l-6 6q-4 98 -99 127 q-82 145 -82 311q0 178 90 326q33 -18 72 -18q100 0 133 96zM836 182q0 -55 -39 -94t-95 -39q-55 0 -94 39t-39 94t39 94t94 39t94.5 -39t39.5 -94zM442 184q-47 49 -84 109q74 -29 84 -109zM442 172q2 -57 -36.5 -97t-96.5 -40q-55 0 -94 39t-39 96q0 55 39 94t94 39 q20 0 39 -6q39 -68 94 -125zM1890 1059v8h-12v12h-8v-12h-10v-8h10v-12h8v12h12zM1950 166v8h-13v12h-8v-12h-10v-8h10v-12h8v12h13zM1171 614v9h-12v12h-8v-12h-12v-9h12v-10h8v10h12zM1489 170v8h-12v12h-9v-12h-10v-8h10v-12h9v12h12zM444 1063v8h-12v12h-8v-12h-12v-8 h12v-12h8v12h12zM717 180v8h-12v13h-9v-13h-10v-8h10v-10h9v10h12zM322 168v8h-13v12h-8v-12h-10v-8h10v-12h8v12h13z" />
<glyph unicode="N" d="M2154 -418h-2056v2056h2056v-2056zM2021 1065q0 66 -47 113t-110 45h-6v26h-494v-32q47 -8 80 -17h-10q-49 0 -93 -24q-135 72 -286 71q-137 0 -260 -57l-56 59h-299l-2 -32q66 -14 111 -31q-20 4 -39 4q-78 0 -133 -55.5t-55 -130.5q0 -68 42 -118t105 -65 q-29 -92 -29 -188q0 -106 35 -207q-72 -6 -121 -59.5t-49 -126.5q0 -76 55.5 -131.5t131.5 -55.5h10q-16 -2 -39 -4v-29h536q27 -2 56 -2q248 0 428 175q98 -111 180 -209l29 6q-23 811 4 1028q4 37 10 61v-14q0 -66 46 -112t112 -46t111.5 46t45.5 112zM2013 1065 q0 -61 -44 -105.5t-105 -44.5q-63 0 -107.5 44.5t-44.5 105.5q0 63 44 107.5t108 44.5q61 0 105 -44.5t44 -107.5zM1618 874q-10 25 -23 48q18 31 23 65v-24v-89zM1612 1014q0 -74 -52.5 -126t-125.5 -52q-74 0 -127.5 52t-53.5 126t53.5 126t127.5 52t126 -52t52 -126z M1622 418q-14 -39 -35 -74l-786 840q119 55 254 55q147 0 278 -68q-86 -55 -86 -157q0 -78 54.5 -132.5t132.5 -54.5q102 0 157 88q16 -31 29 -61zM1622 305l-29 33q16 29 29 59v-92zM1477 197q-176 -170 -422 -170h-49v22q-47 8 -82 21q14 -2 28 -2q78 0 132.5 54t54.5 132 q0 76 -54.5 131t-132.5 55q-76 0 -131 -54t-55 -132q-10 70 -10 383v332q111 -121 311 -334h-12v12h-8v-12h-11v-6h11v-13h8v13h12v6q138 -143 410 -438zM688 1004q0 -74 -52 -127.5t-126 -53.5q-16 0 -31 4q53 160 183 269q26 -43 26 -92zM657 1102q-131 -111 -186 -275 q-61 14 -101 63.5t-40 113.5q0 74 52 126t128 52q94 0 147 -80zM1133 254q0 -74 -53.5 -127t-127.5 -53t-126 53t-52 127t52.5 126t125.5 52q74 0 127.5 -52t53.5 -126zM696 647q0 -319 -18 -407v0q0 78 -54.5 133t-131.5 55q-4 0 -9 -2q-37 100 -37 207q0 96 31 186 q16 -2 33 -2q72 0 125 47t59 119q2 -29 2 -65v-271zM672 240q0 -74 -53.5 -126.5t-126.5 -52.5q-74 0 -126.5 52.5t-52.5 126.5q0 76 52.5 128t126.5 52t127 -52t53 -128zM1876 1061v8h-12v12h-9v-12h-10v-8h10v-10h9v10h12zM1446 1012v8h-12v12h-9v-12h-10v-8h10v-11h9v11 h12zM522 997v9h-12v12h-8v-12h-10v-9h10v-10h8v10h12zM969 252v8h-11v12h-8v-12h-12v-8h12v-10h8v10h11zM504 238v8h-12v10h-7v-10h-12v-8h12v-13h7v13h12z" />
<glyph unicode="O" d="M2154 -418h-2056v2056h2056v-2056zM1888 745l-2 11l-174 -31q-37 213 -180 348q-152 141 -373 141q-70 0 -135 -12l-33 178l-8 -2l31 -178q-217 -43 -352 -194q-143 -160 -144 -388q0 -53 8 -104l-170 -29l2 -10l168 31q35 -221 183 -361q156 -145 383 -145q68 0 131 12 l28 -159l9 2l-27 159q215 43 350 195q141 160 141 385q0 61 -10 121zM1520 690l-129 -22q35 72 34 151q0 96 -49 178q103 -127 144 -307zM1417 819q0 -78 -33 -145q-94 72 -213 71q-33 0 -67 -8l-74 418q25 4 47 4q139 0 239.5 -100.5t100.5 -239.5zM1540 524 q0 -90 -20 -172q2 20 2 43q0 160 -121 264l121 23q18 -84 18 -158zM1378 666l-254 -45l-18 108q33 6 65 6q115 1 207 -69zM1374 655q-76 -135 -225 -168l-23 125zM1096 735q-145 -31 -224 -160l-28 -4q-106 100 -107 248q0 125 81 220.5t204 115.5l57 -332h-2v13h-8v-13h-10 v-8h10v-10h8v10h4zM1511 395q0 -127 -81.5 -222t-204.5 -114l-60 322h9v10h10v10h-10v11h-11v-9l-12 74q47 10 116.5 91t121.5 89q122 -102 122 -262zM1116 621h-4v12h-8v-12h-10v-7l-207 -36q76 119 211 149zM1139 485q-31 -6 -62 -6q-117 0 -207 70q4 10 9 18l225 41v-8h8 v8l6 2zM834 569l-113 -20q-16 82 -16 153q0 119 38 220q-16 -49 -16 -103q1 -148 107 -250zM866 565l-4 -10l-8 8zM1214 57q-20 -2 -43 -2q-139 0 -239.5 100.5t-100.5 239.5q0 76 33 146q94 -72 213 -72q33 0 64 6l14 -74h-2v-10h4zM897 180q-127 137 -174 361l119 20 q8 -8 16 -14q-35 -72 -35 -152q0 -121 74 -215z" />
<glyph unicode="P" d="M2154 -418h-2056v2056h2056v-2056zM1749 612q0 315 -268 514q-164 123 -439 123q-20 0 -446 -12v-33q41 -2 72 -8q-47 -4 -80 -40t-33 -85q0 -66 51 -102q-111 -160 -110 -357q0 -197 112 -356q-49 -39 -49 -98q0 -53 37 -90t88 -37q-39 -10 -100 -19v-28h643v10 q223 39 372.5 213t149.5 405zM1741 612q0 -227 -146.5 -399t-367.5 -211v10q-94 14 -137 27h16q51 0 88 36t37 89q0 51 -37 88t-88 37q-45 0 -80 -30t-43 -73q-4 37 -4 103v915q176 0 289 -86q125 -94 125 -264q0 -256 -289 -295l6 -29q197 16 320 97q158 100 157 278 q0 102 -59 176q213 -186 213 -469zM776 1135q-96 -63 -164 -160q-51 35 -51 96q0 47 35 82t84 35q14 0 29 -4q47 -16 67 -49zM797 1071q0 -49 -35 -83t-82 -34q-33 0 -62 17q66 94 162 157q17 -26 17 -57zM813 989q0 18 0 -125v-575q0 -76 -6 -115q-6 47 -41 78t-82 31 q-39 0 -70 -23q-111 160 -110 352q0 193 110 353q29 -18 66 -19q51 0 88 37t37 88v0q6 -31 8 -82zM1223 164q0 -49 -34 -84t-83 -35t-83 35t-34 84q0 47 34 82t83 35t83 -35t34 -82zM801 158q0 -35 -17 -64q-47 31 -86 68v4h-4l-8 8v4h-4q-35 35 -64 76q29 20 66 20 q47 0 82 -34.5t35 -81.5zM778 88q-35 -49 -94 -49q-49 0 -83 35t-34 84q0 55 45 92q29 -43 66 -80v-4h-10v-8h10v-11h8v11h6q41 -39 86 -70zM1202 883v8h-12v12h-6v-12h-13v-8h13v-11h6v11h12zM1169 881v8h-10v12h-8v-12h-12v-8h12v-11h8v11h10zM692 1065v8h-12v12h-8v-12 h-13v-8h13v-10h8v10h12zM1139 608v8h-13v13h-8v-13h-12v-8h12v-12h8v12h13zM1122 160v8h-12v12h-8v-12h-10v-8h10v-10h8v10h12z" />
<glyph unicode="Q" d="M2154 -418h-2056v2056h2056v-2056zM1960 -61l-6 30q-195 -33 -217 -32q-104 0 -226 57q-176 82 -217 94q193 61 306.5 207.5t113.5 343.5q0 37 -4 70l90 16l-2 8l-90 -14q-25 225 -185.5 365.5t-394.5 140.5q-63 0 -127 -13l-14 91l-10 -3l16 -88q-217 -41 -354 -186 q-150 -156 -150 -377q0 -76 15 -143l-96 -17l2 -10l96 19q72 -319 448 -430l86 -27q68 -18 172 -68l11 -63l8 2l-8 55q156 -76 196 -90q119 -47 209 -47q74 0 170 39q80 35 162 70zM1516 684l-48 -8q-18 29 -41 55q4 33 5 66q0 131 -80 233q125 -141 164 -346zM1423 797 q0 -29 -4 -58q-113 115 -272 115q-41 0 -80 -8l-55 317q20 2 43 2q152 0 260 -107t108 -261zM1458 674l-49 -8q10 27 16 53q19 -20 33 -45zM1528 565q0 -37 -4 -73q-2 92 -51 176l45 8q10 -58 10 -111zM1417 727q-20 -106 -97 -185t-181 -104l-29 166h6v10h-8l-39 224 q37 8 78 8q159 0 270 -119zM1059 844q-106 -25 -183 -103.5t-100 -185.5q-90 104 -90 242q0 139 90 242.5t225 121.5zM1516 477q0 -123 -76 -225q-90 -121 -244 -141l-55 317q190 45 264 227l57 11q54 -89 54 -189zM1130 436q-37 -8 -75 -8q-162 0 -271 119q20 106 95 184 t180 105l37 -209v0v-13h-11v-10h11v-10h8v8h-4zM1362 166q-68 -45 -145 -62l-3 5q82 12 146 59zM766 551l-64 -10q-25 92 -24 180v35q14 -117 88 -205zM1188 111q-20 -2 -41 -2q-170 0 -289 137q-80 96 -80 231q0 29 4 58q111 -117 273 -117q39 0 78 8zM805 315 q-66 96 -100 217l69 13v-2q-6 -33 -6 -66q0 -86 37 -162zM1069 793v10h-12v10h-8v-10h-11v-10h11v-11h8v11h12zM1161 473v8h-12v13h-8v-13h-13v-8h13v-10h8v10h12z" />
<glyph unicode="R" d="M2154 39v-457h-2056v2056h2056v-739q4 -2 0 -860zM2154 47q-76 -29 -157 -29q-231 0 -367 189q156 176 156 411q0 117 -41 224q113 78 252 78q82 0 157 -29v8q-76 29 -157 29q-139 0 -256 -78q-61 152 -192.5 254t-297.5 127q-123 20 -221 16l-448 -10v-29q39 -4 65 -8 q-51 -4 -85 -41t-34 -88q0 -49 32 -86t79 -43q-92 -150 -92 -324q0 -168 84 -313q-43 -8 -73 -44t-30 -83q0 -53 38 -92t91 -39q10 0 21 2q-41 -12 -107 -22v-29h596h17q29 0 30 2q147 12 275 88q72 -70 207 -90q18 -2 231 -14l4 32q33 -4 66 -4q82 0 157 27v8zM2013 465v8 h-12v12h-8v-12h-11v-8h11v-10h8v10h12zM1735 846q-197 -137 -197 -377q0 -143 82 -260l-6 -8q-119 121 -303 436l-4 14q223 98 223 299q0 174 -172 248q271 -88 377 -352zM1778 618q0 -231 -152 -403q-80 115 -80 254q0 233 191 369q41 -107 41 -220zM1337 909 q0 -139 -120 -215q-106 -68 -256 -67v581q158 0 260 -69q116 -80 116 -230zM1212 895v6h-12v12h-8v-12h-10v-6h10v-12h8v12h12zM1147 895v6h-10v12h-9v-12h-12v-6h12v-12h9v12h10zM1661 158q-20 18 -41 39l4 4q19 -23 37 -43zM780 1071q0 -51 -35.5 -87t-87.5 -36h-6 q53 82 127 144q2 -11 2 -21zM776 1100q-78 -63 -133 -150q-45 4 -75.5 39t-30.5 82q0 51 35.5 87t84.5 36q96 0 119 -94zM674 1067v8h-10v12h-9v-12h-12v-8h12v-10h9v10h10zM1483 94q-125 -74 -269 -86v19q-92 14 -137 28h8q55 0 93.5 38t38.5 91t-38 92t-94 39 q-98 0 -124 -96v82v293h83q45 -2 68 -8q61 -18 115 -123q104 -215 256 -369zM795 301q0 -76 -7 -117q-2 51 -39.5 88t-91.5 37q-8 0 -18 -2q-84 143 -84 311q0 174 92 324q6 -2 10 -2q51 0 88 34t43 83q6 -49 7 -187v-569zM1208 184q0 -51 -35.5 -87t-87.5 -36 q-82 0 -112 76q-4 14 -8 41v6q-2 51 34.5 87t85.5 36q51 0 87 -36t36 -87zM1104 180v8h-12v13h-9v-13h-12v-8h12v-10h9v10h12zM780 178q0 -16 -4 -31q-78 66 -131 152q6 2 12 2q51 0 87 -36t36 -87zM774 139q-29 -84 -117 -84q-49 0 -84.5 36t-35.5 87q0 45 27.5 79t72.5 42 q55 -92 137 -160zM678 176v8h-12v13h-9v-13h-12v-8h12v-10h9v10h12z" />
<glyph unicode="S" d="M2154 -418h-2056v2056h2056v-2056zM1989 621v12h-252q-2 162 -81 298t-212 218l2 33q-121 70 -266 69q-25 0 -52 -4v246h-12v-246q-18 -4 -37 -8q-240 -14 -406.5 -189.5t-170.5 -416.5h-246v-12h246q2 -301 239 -486l11 -55q133 -94 315 -94q25 0 49 2v-228h12v230 q70 8 136 33q205 49 339 216t134 382h252zM1729 633h-410q-63 37 -191 112v453h19q119 0 180 -86q43 -63 72 -201h33l12 228q129 -80 206 -214t79 -292zM1116 754q-178 113 -178 247q0 80 50 133.5t128 63.5v-444zM1729 621q0 -199 -116 -357t-298 -219q190 100 190 293 q0 164 -168 283h392zM1036 1227q-111 -37 -178 -115q-76 -88 -76 -201q0 -162 168 -278h-440q4 227 154.5 396t371.5 198zM1327 260q0 -94 -55 -151.5t-144 -65.5v483q199 -121 199 -266zM1116 41h-18q-139 0 -242 109q-84 92 -123 235h-37l43 -240q-229 182 -229 476h459 q31 -20 86 -52l61 -37v-491zM1171 1030v8h-12v13h-8v-13q-10 0 -12 -2t2 -4t10 -2v-10h8v10h12zM1176 971v8h-13v12h-8v-12q-10 0 -12 -2t2 -4t10 -2v-10h8v10h13zM1067 254v8h-12v12h-8v-12h-11v-8h11v-12h8v12h12zM1034 254v8h-12v12h-8v-12h-10v-8h10v-12h8v12h12z M1071 195v6h-12v12h-8v-12h-11v-6h11v-13h8v13h12zM1038 195v6h-12v12h-8v-12h-10v-6h10v-13h8v13h12z" />
<glyph unicode="T" d="M2154 -418h-2056v2056h2056v-2056zM1755 616q0 158 -74 295l25 4l-25 334h-16q-20 -18 -43 -36.5t-49 -18.5h-193q-123 55 -258 55t-258 -55h-176q-37 0 -90 55h-18l-25 -334l8 -2q-74 -137 -74 -297q0 -156 66 -288q70 -143 195 -224q39 -76 129 -81q-33 -6 -76 -13v-26 h657v26q-47 6 -80 15q90 6 131 94q117 84 180.5 217t63.5 280zM1636 981q-59 84 -131 139q113 -24 131 -139zM1638 952q2 -70 -47 -121t-121 -51q-70 0 -120 50.5t-50 121.5q0 72 50.5 123t119.5 47h19q84 -61 149 -157v-13zM1360 1194h-475q113 47 237 47q125 0 238 -47z M1747 616q0 -297 -229 -483q8 23 8 49q0 63 -47 110.5t-111 47.5q-59 0 -103 -38t-55 -95q-2 39 -2 112v818h107q96 0 141 -7q-68 -4 -116 -56t-48 -122q0 -74 52.5 -126t125.5 -52q74 0 124.5 51.5t52.5 124.5q100 -158 100 -334zM725 1110q-47 -39 -88 -88q29 61 88 88z M965 952q0 -72 -50.5 -122t-121.5 -50q-70 0 -120 50.5t-50 121.5q0 25 6 47q53 68 121 119q20 4 43 4q72 0 122 -50t50 -120zM1518 182q0 -31 -13 -59q-74 -57 -159 -90q-51 0 -93 51q-37 45 -36 98q0 61 44 105.5t107 44.5q61 0 105.5 -44.5t44.5 -105.5zM1497 109 q-43 -78 -129 -78h-6q74 31 135 78zM1047 1137v-834q0 -61 -3 -98q-8 57 -53 96t-102 39q-66 0 -112 -47t-46 -111q0 -33 10 -61q-244 188 -243 495q0 158 73 297l11 -2l14 41l20 33q-2 -16 -2 -33q0 -74 52.5 -126t126.5 -52t127 52.5t53 125.5q0 72 -49.5 123t-120.5 55 q45 6 127 7h117zM1038 182q0 -59 -38.5 -102t-98.5 -47q-78 29 -145 78q-18 33 -19 71q0 61 45 105.5t107 44.5q61 0 105 -44.5t44 -105.5zM883 31q-74 4 -117 63q56 -38 117 -63zM1491 950v8h-12v13h-9v-13h-12v-8h12v-10h9v10h12zM811 952v9h-12v12h-8v-12h-13v-9h13v-10 h8v10h12zM1382 178v8h-12v13h-8v-13h-10v-8h10v-10h8v10h12zM901 178v8h-12v13h-6v-13h-13v-8h13v-10h6v10h12z" />
<glyph unicode="U" d="M2154 -418h-2056v2056h2056v-2056zM1942 1063q0 61 -44.5 105t-105.5 44h-2q12 2 25 2v35h-531v-35q66 -4 113 -18q-66 8 -119 -39q-127 76 -274 88v4h-631v-35q51 -6 88 -14q-63 6 -110.5 -40t-47.5 -107q0 -102 94 -140q-74 -139 -73 -299q0 -260 184 -445t446 -185 h154q270 0 393 129q98 104 121 323q0 12 10 420q-2 72 10 207v0q0 -61 44.5 -105.5t105.5 -44.5t105.5 44.5t44.5 105.5zM1933 1063q0 -59 -41 -100t-100 -41q-57 0 -99 41t-42 100q0 57 42 99t99 42q59 0 100 -42t41 -99zM1532 1038q0 -55 -37 -98q-78 133 -211 213 q43 35 96 35q63 0 107.5 -44.5t44.5 -105.5zM1559 799q-23 72 -58 133q39 45 39 106q0 18 -4 37q23 -66 23 -209v-67zM1047 1051q0 -59 -41 -100.5t-101 -41.5q-57 0 -98 41t-41 101q0 57 41 98t98 41q59 0 100.5 -41t41.5 -98zM1559 770q0 -16 2 -102q2 -76 2 -119 q0 -66 -7 -96q-68 -254 -299 -383q-25 -2 -53 -2q-215 0 -330.5 116.5t-115.5 333.5q0 72 2 215v215q0 39 2 66q12 -49 52 -81t91 -32q63 0 106.5 44t43.5 106q0 61 -43 104t-107 43h-6q37 8 105 16v23q199 -14 350.5 -143t204.5 -324zM1554 416q-31 -307 -276 -342 q200 119 276 342zM575 1120q-109 -82 -174 -200q-90 35 -90 133q0 57 41 99t101 42q81 0 122 -74zM979 -8h-25q-256 -4 -440 180t-184 442q0 150 67.5 282t186.5 220q16 -43 16 -168v-409q0 -14 -2 -70v-68q16 -360 381 -409zM1806 1057v8h-12v12h-8v-12h-12v-8h12v-13h8v13 h12zM1399 1034v8h-15v13h-6v-13h-12v-8h12v-12h6v12h15zM922 1044v9h-13v12h-8v-12h-10v-9h10v-10h8v10h13zM1114 610v8h-12v13h-8v-13h-11v-8h11v-10h8v10h12zM971 612v9h-13v12h-8v-12h-12v-9h12v-10h8v10h13zM465 1044v9h-12v12h-7v-12h-12v-9h12v-10h7v10h12z" />
<glyph unicode="V" d="M2154 -418h-2056v2056h2056v-2056zM2015 1004q0 88 -60.5 149t-148.5 64v32h-512v-35q70 -10 109 -20h-2q-27 0 -49 -12q-131 66 -281 65q-29 0 -57 -4v6h-572v-30q-88 6 -150.5 -59.5t-62.5 -153.5q0 -86 62.5 -148.5t148.5 -62.5q14 0 27 2q-27 -90 -27 -183 q0 -262 185.5 -447t445.5 -185q262 0 447.5 184t185.5 448q0 123 -45 236q61 -57 145 -57q86 0 148.5 62.5t62.5 148.5zM2007 1004q0 -84 -59.5 -143.5t-143.5 -59.5q-92 0 -153 67q-18 45 -45 84q-6 27 -7 52q0 86 59.5 145t145.5 59q84 0 143.5 -59t59.5 -145zM1610 1092 q-18 -41 -19 -88q0 -16 2 -33q-12 20 -28 41q25 47 45 80zM1497 1090v-9q-61 57 -137 97q20 8 41 8q41 0 68.5 -27.5t27.5 -68.5zM1638 883h-2q-12 27 -26 51h2q10 -26 26 -51zM1497 1073q-14 -80 -96 -80q-39 0 -67.5 28t-28.5 69q0 55 47 84q79 -42 145 -101zM1034 1096 q0 -39 -28.5 -68t-67.5 -29q-41 0 -68.5 29t-27.5 68q0 41 27.5 68.5t68.5 27.5q39 0 67.5 -27.5t28.5 -68.5zM1493 1038q-14 -55 -109 -284l-208 -506l-287 690q-16 35 -43 106q31 -53 92 -53q43 0 73.5 31t30.5 74t-30.5 74.5t-73.5 29.5h-6q35 10 82 14v21q29 4 57 4 q143 0 272 -61q-47 -33 -47 -88q0 -43 31 -74t74 -31q61 0 92 53zM1696 614q0 -244 -163 -422t-400 -200l340 811q31 72 88 201q20 -27 38 -54q12 -49 46 -86q51 -119 51 -250zM645 1006q0 -74 -48 -130.5t-120 -70.5q47 150 160 258q8 -28 8 -57zM635 1071 q-117 -113 -166 -266q-14 -2 -29 -2q-84 0 -143 59.5t-59 143.5q0 86 59 145t143 59q68 0 121.5 -39t73.5 -100zM1098 -10h-27q-258 0 -441.5 182t-183.5 442q0 94 29 183q76 12 127 71.5t51 137.5q0 33 -10 63v0q14 -25 53 -119zM1819 1001v9h-13v12h-8v-12h-12v-9h12v-12 h8v12h13zM1417 1085v9h-12v12h-8v-12h-11v-9h11v-10h8v10h12zM954 1098v6h-12v14h-8v-14h-10v-6h10v-13h8v13h12zM1130 610v6h-12v13h-6v-13h-12v-6h12v-12h6v12h12zM1083 612v6h-12v15h-8v-15h-10v-6h10v-12h8v12h12zM459 1008v8h-13v12h-8v-12h-12v-8h12v-13h8v13h13z" />
<glyph unicode="W" d="M2154 -418h-2056v2056h2056v-2056zM2120 1047q0 70 -46 118.5t-112 48.5h14v35h-444v-35q33 -6 90 -20q-33 0 -57.5 -26.5t-24.5 -61.5q0 -37 24.5 -63.5t59.5 -26.5q55 0 78 53q-10 -82 -105 -371l-127 -399l-38 125q29 92 28 190q0 229 -137 404q70 14 70 88 q0 37 -25 62.5t-59 25.5h-11q33 14 88 20v35h-495v-4q-12 2 -25 2q-53 0 -102 -10v12h-477v-35q18 -4 32 -10q-14 4 -28 4q-66 0 -112 -49t-46 -119t46 -119t112 -49q16 0 33 5q-51 -125 -52 -263q0 -225 133.5 -398t337.5 -218l2 -14h23l2 8q47 -8 96 -8q287 0 465 239 l72 -239h20l367 1073q14 43 35 71q-20 -37 -21 -81q0 -70 46 -119t112 -49t112 49t46 119zM2111 1047q0 -66 -44 -113t-105 -47q-63 0 -107.5 47t-44.5 113t44 112.5t108 46.5q61 0 105 -46.5t44 -112.5zM1700 1106q0 -35 -21.5 -58.5t-54.5 -23.5q-31 0 -53.5 23.5 t-22.5 58.5q0 33 22.5 56.5t53.5 23.5q33 0 54.5 -23.5t21.5 -56.5zM1384 1106q0 -72 -67 -82q-37 49 -84 88q4 74 76 74q31 0 53 -23.5t22 -56.5zM1309 1024q-57 -2 -74 59q-2 10 -2 19q41 -35 76 -78zM1452 614q0 -90 -25 -178l-174 568q-8 31 -12 49q25 -37 68 -37h6 q137 -173 137 -402zM766 1110q0 -35 -22.5 -58.5t-53.5 -23.5q-33 0 -54.5 23.5t-21.5 58.5q0 33 21.5 56.5t54.5 23.5q31 0 53.5 -23.5t22.5 -56.5zM1083 1061l-266 -748l-176 635q-16 47 -33 144q14 -72 82 -72q35 0 59.5 26.5t24.5 63.5t-24.5 62.5t-59.5 25.5 q31 10 74 16v15q49 10 102 10h25v-25q84 -14 121 -43q44 -30 71 -110zM1329 231q-176 -240 -463 -239q-47 0 -94 8l330 979zM451 1067l-2 -2q-2 14 -9 29q7 -13 11 -27zM442 1040q2 -117 -104 -153q41 88 104 160v-7zM440 1057q-70 -76 -112 -172q-18 -4 -37 -4 q-61 0 -105.5 46t-44.5 113q0 66 44 113t106 47q59 0 101 -41t48 -102zM741 6q-201 45 -331.5 216t-130.5 392q0 139 55 265q51 14 83 59t32 102v15l4 4q4 -12 20 -72zM1972 1042v9h-10v12h-8v-12h-10v-9h10v-10h8v10h10zM1640 1100v8h-12v12h-6v-12h-12v-8h12v-13h6v13h12z M1323 1100v8h-10v12h-8v-12h-11v-8h11v-13h8v13h10zM705 1108v8h-13v12h-8v-12h-10v-8h10v-10h8v10h13zM1147 616v9h-10v12h-9v-12h-10v-9h10v-10h9v10h10zM877 612v9h-13v12h-6v-12h-12v-9h12v-10h6v10h13zM309 1034v8h-12v13h-6v-13h-10v-8h10v-12h6v12h12z" />
<glyph unicode="X" d="M2154 -418h-2056v2056h2056v-2056zM2013 301q0 119 -82 204t-200 87q2 12 2 24v19q96 23 160.5 102.5t64.5 182.5q0 119 -84 203.5t-203 88.5h12v37h-466v-10q-57 10 -117 10q-31 0 -62 -4v4h-518v-32q-100 -4 -168.5 -76t-68.5 -172q0 -86 55 -153.5t139 -86.5 q-10 -59 -10 -125q-102 -18 -169 -99t-67 -188q0 -121 85 -206.5t206 -85.5q25 0 49 4q-43 -10 -98 -19v-26h504v12q61 -12 123 -12q45 0 90 6v-6h528v24q123 -4 209 83t86 210zM1950 920q0 -100 -61.5 -177t-157.5 -100q-4 145 -74 272h6v-10h8v10h12v9h-12v12h-8v-12h-10 q-68 123 -183 204q86 76 195 76q117 0 201 -83.5t84 -200.5zM1724 641q-31 -6 -59 -6q-119 0 -202 83t-83 202t86 202q246 -178 258 -481zM1335 1126q0 -68 -67 -67q-68 0 -68 67q0 68 68 68q65 0 67 -68zM1073 1130q0 -68 -67 -67q-68 0 -68 67q0 68 68 68q67 0 67 -68z M1329 1081q-20 -72 -86 -180q-53 -86 -108 -172l-154 281q-27 51 -37 77q23 -33 62 -32q31 0 53 22.5t22 52.5q0 31 -21.5 52.5t-51.5 21.5q14 6 30 8v27q31 2 62 2q59 0 117 -10v-19q33 -4 53 -12h-2q-31 2 -53.5 -20.5t-22.5 -53.5t22.5 -53t53.5 -22q38 -1 61 30z M1724 594q-123 0 -208.5 -86t-85.5 -207q0 -45 12 -88q-14 27 -47 82l-228 391l150 236q57 92 88 131q-33 -61 -33 -133q0 -121 86 -207t207 -86q29 0 59 6v-18.5v-20.5zM2007 301q0 -119 -84 -202t-201 -83q-131 0 -223 111q219 178 232 459q115 -4 195.5 -87t80.5 -198z M1722 586q-12 -276 -227 -453q-14 18 -29 39q-29 61 -28 129q0 117 83 201t201 84v0zM768 969q0 -98 -69.5 -168t-168.5 -70q-23 0 -45 4q45 233 236 379q47 -65 47 -145zM715 1120q-190 -147 -238 -383q-80 16 -133 82t-53 150q0 100 69.5 169.5t169.5 69.5q115 0 185 -88z M1034 588l-174 -279q-23 -37 -67 -106q23 55 22 114q0 121 -85 207t-208 86q-23 0 -47 -4q0 63 10 121q20 -4 45 -4q102 0 174 72.5t72 173.5q0 53 -20 102q14 -23 94 -162zM1282 139q-23 29 -57 29q-33 0 -54.5 -21.5t-21.5 -52.5t21.5 -53.5t54.5 -22.5q-14 -4 -35 -8v-12 q-45 -6 -90 -6q-61 0 -123 12v6q-16 6 -49 21h8q37 0 63.5 25.5t26.5 62.5t-26.5 63.5t-63.5 26.5q-41 0 -68 -33q27 72 93 182q82 135 102 181l133 -230q33 -55 86 -170zM1290 94q0 -68 -65 -67q-68 0 -68 67q0 68 68 68q65 0 65 -68zM1018 119q0 -33 -23.5 -57.5 t-58.5 -24.5q-33 0 -56.5 24.5t-23.5 57.5q0 35 23.5 58.5t56.5 23.5q35 0 58.5 -23.5t23.5 -58.5zM807 317q0 -117 -82 -200q-242 182 -250 481q25 4 47 4q119 0 202 -83t83 -202zM719 111q-82 -78 -197 -78q-117 0 -200.5 84t-83.5 200q0 102 65.5 181.5t163.5 99.5 q4 -145 72 -272h-9v12h-8v-12h-12v-9h12v-12h8v12h13q65 -122 176 -206zM1284 1122v6h-12v13h-8v-13h-13v-6h13v-12h8v12h12zM1024 1128v9h-12v12h-8v-12h-13v-9h13v-12h8v12h12zM1739 299v8h-13v12h-8v-12h-12v-8h12v-10h8v10h13zM545 967v8h-13v12h-8v-12h-12v-8h12v-13h8 v13h13zM1237 92v8h-12v13h-8v-13h-11v-8h11v-12h8v12h12zM952 115v8h-12v12h-6v-12h-12v-8h12v-11h6v11h12z" />
<glyph unicode="Y" d="M2154 -418h-2056v2056h2056v-2056zM1993 944q0 109 -74 187.5t-180 87.5v30h-477v-12q-63 12 -127 12q-41 0 -82 -6v6h-518v-28h-9q-113 2 -193.5 -79t-80.5 -196q0 -106 72.5 -185t179.5 -87q-2 -29 -2 -58q0 -254 174 -436q12 -66 62 -109.5t118 -43.5l8 2 q-31 -8 -71 -17v-28h657v28q-35 6 -61 13q127 2 170 122q209 188 208 469q0 29 -4 58q98 16 164 93t66 177zM1985 944q0 -98 -63.5 -172t-158.5 -90q-29 272 -245 438q80 90 200 90q111 0 189 -77.5t78 -188.5zM1755 682q-18 -4 -37 -4q-111 0 -188.5 78t-77.5 188 q0 96 61 170q215 -164 242 -432zM1393 1128q0 -29 -20.5 -49t-49.5 -20t-49.5 20.5t-20.5 48.5q0 29 20.5 49.5t49.5 20.5t49.5 -20.5t20.5 -49.5zM1047 1145q0 -55 -56 -55q-55 0 -55 55q0 37 45 53q6 2 10 2q56 0 56 -55zM1759 616q0 -270 -196 -454q6 23 6 45 q0 74 -53.5 127t-129.5 53q-72 0 -124 -49t-56 -119q-4 39 -4 121v207l221 436q25 49 50 84q-29 -57 -29 -123q0 -113 81 -193.5t193 -80.5q18 0 39 4q2 -29 2 -58zM1397 1106q-6 -63 -74 -193l-158 -301l-184 394q-35 74 -43 104q20 -29 53 -29q63 0 64 64q0 51 -49 61 q18 4 47 8v21q41 6 82 6q63 0 127 -12v-15q31 -4 53 -10q-70 -6 -70 -76q0 -33 22.5 -55t55.5 -22q58 0 74 55zM1561 207q0 -29 -11 -55q-84 -76 -186 -117q-63 8 -106.5 57t-43.5 115q0 72 50.5 122t121.5 50q72 0 123.5 -50t51.5 -122zM1544 135q-47 -104 -158 -102h-6 q90 39 164 102zM793 946q0 -111 -78 -188.5t-189 -77.5h-14q27 258 229 422q52 -66 52 -156zM737 1108q-205 -166 -231 -426q-104 8 -175 84t-71 180q0 111 78 188.5t188 77.5q129 0 211 -104zM1034 340q0 -63 -2 -96q-12 63 -61 104t-115 41q-76 0 -129 -52t-53 -128 q0 -8 2 -16q-166 180 -166 423q0 29 2 58q8 -2 14 -2q113 0 194 81t81 193q0 41 -13 78q10 -20 56 -117l190 -418v-149zM1028 209q0 -61 -38 -108.5t-97 -61.5q-119 51 -209 143q-2 14 -2 27q0 72 51 122t123 50t122 -50t50 -122zM881 37q-12 -2 -25 -2q-61 0 -108.5 38 t-61.5 97q86 -84 195 -133zM1733 942v8h-13v13h-8v-13h-12v-8h12v-12h8v12h13zM1335 1124v6h-12v15h-8v-15h-10v-6h10v-12h8v12h12zM1004 1139v8h-13v12h-8v-12h-10v-8h10v-11h8v11h13zM1403 203v8h-12v12h-7v-12h-12v-8h12v-10h7v10h12zM539 944v8h-13v13h-8v-13h-12v-8h12 v-10h8v10h13zM870 205v8h-12v12h-8v-12h-12v-8h12v-10h8v10h12z" />
<glyph unicode="Z" d="M2154 -418h-2056v2056h2056v-2056zM1755 616q0 297 -229 488l88 125l-12 20h-988l-24 -291q-100 -156 -101 -342q0 -252 175 -434l-13 -16l-125 -164l6 -18h1076q70 170 98 389q49 116 49 243zM1747 616q0 -111 -37 -210q2 23 6 49l-35 4q-29 -141 -84 -228q25 51 25 105 q0 102 -71.5 173t-172.5 71q-100 0 -171.5 -71t-71.5 -173q0 -100 71.5 -171t171.5 -71q41 0 78 12q-133 -66 -493 -65h-86q-33 14 -64 33l709 1024q225 -189 225 -482zM1022 983q0 -72 -51 -123t-123 -51t-123 51t-51 123q0 55 33 100q39 35 86 64h-2q29 8 57 8 q72 0 123 -50t51 -122zM1614 336q0 -96 -68.5 -166t-167.5 -70q-98 0 -166.5 70t-68.5 166q0 98 68.5 166.5t166.5 68.5t167 -68.5t69 -166.5zM1354 1188l-686 -1000q-170 180 -170 428q0 176 92 326l-6 -63h32q23 98 62 163q-10 -29 -10 -59q0 -76 52 -129t128 -53t128 53 t52 129q0 74 -52 127t-128 53h-17q106 25 351 25h172zM858 41h-67l16 27q24 -15 51 -27zM860 979v8h-12v12h-8v-12h-11v-8h11v-10h8v10h12zM1393 332v8h-15v12h-6v-12h-12v-8h12v-10h6v10h15z" />
<glyph unicode="a" d="M1741 223h-12v-10h-7v10h-10v6h10v13h7v-13h12v-6zM1837 33q-49 -29 -108 -29q-14 0 -29 2v-22h-461v22q-59 -14 -123 -14q-92 0 -176 28q-8 -2 -16 -2q25 -2 69 -10v-24h-430v24l12 4q-16 -2 -32 -2q-63 0 -119 33l4 4q53 -31 115 -31q137 0 194 123q-135 125 -170 303 q-12 2 -24 2q-66 0 -125 -41l-2 7q59 41 127 41q12 0 22 -2q-8 51 -8 102q0 188 111.5 335.5t287.5 200.5q-12 23 -12 50q0 47 34 80.5t81 33.5t79.5 -33.5t32.5 -80.5q0 -14 -2 -29q213 -20 359.5 -180t146.5 -377q0 -59 -12 -117q33 10 66 10q51 0 100 -22l-4 -6 q-45 23 -96 22q-35 0 -68 -10q-33 -150 -139 -260q20 -70 77.5 -114t129.5 -44q57 0 106 29zM553 227h-12v-10h-6v10h-11v6h11v11h6v-11h12v-6zM1165 1137q0 45 -30.5 76.5t-75.5 31.5t-77 -31.5t-32 -76.5q0 -25 13 -47q74 20 153 20q23 0 45 -2q4 15 4 29zM1161 1102 q-23 2 -45 2q-78 0 -151 -21q31 -53 94 -53h14q49 25 84 66q2 4 4 6zM1669 551q0 215 -145.5 373.5t-356.5 177.5l-2 -4l348 -918q-6 20 -6 43q0 72 42 129.5t108 79.5q12 60 12 119zM1655 426q-61 -25 -100 -80t-39 -123q0 -25 4 -49q102 109 135 252zM1239 502l-160 399 l-143 -399h303zM1065 1024h-6q-68 0 -101 57q-174 -51 -284.5 -197.5t-110.5 -332.5q0 -51 10 -102q80 -10 135.5 -73t55.5 -147q0 -14 -2 -28l272 710q6 20 21 58q6 31 -6 51q10 4 16 6v-2zM1360 106q0 16 -2 29q-18 74 -94 74q-41 0 -70 -28.5t-29 -67.5q0 -86 84 -99 q39 10 78 25q8 6 14 14q19 24 19 53zM1352 168q-2 2 -90 260h-351q-35 -86 -88 -262q29 61 95 61q45 0 74.5 -30.5t29.5 -73.5q0 -76 -72 -98q80 -27 166 -27q59 0 119 12q-76 23 -76 103q0 43 30 72.5t75 29.5q57 0 88 -47zM1016 123q0 41 -29 69.5t-69 28.5 q-39 0 -68 -28.5t-29 -69.5q0 -25 10 -45q51 -31 109 -51q76 18 76 96zM758 229q0 80 -53.5 140.5t-131.5 72.5q35 -174 166 -297q19 41 19 84zM926 25q-45 16 -86 41q29 -41 78 -41h8zM821 84l-2 4l2 -4v0zM1073 1135h-12v-11h-6v11h-11v6h11v12h6v-12h12v-6zM1274 109h-10 v-11h-7v11h-10v6h10v10h7v-10h10v-6zM928 121h-10v-10h-7v10h-10v6h10v12h7v-12h10v-6z" />
<glyph unicode="b" d="M1751 618q0 -246 -168 -425q-80 -184 -405 -207q-43 -2 -101 -2l-508 4v30q49 6 82 15q-55 2 -95 44t-40 97q0 84 74 125q-88 147 -88 319q0 164 80 308q-63 43 -64 118q0 55 39 96.5t94 45.5q-31 6 -71 12v35l372 14q47 2 197 -4q252 -12 427 -192.5t175 -432.5z M1745 618q0 203 -119 365t-307 223q209 -74 209 -266q0 -207 -328 -287v-4q408 -86 408 -332q0 -59 -17 -108q154 176 154 409zM1341 913q0 150 -120 224q-98 61 -260 61v-543q380 0 380 258zM793 1010q-2 78 -25 112q-49 -35 -90 -78v-2h-2q-49 -53 -86 -114q33 -20 72 -21 q106 1 131 103zM666 1042v0v-2v2zM764 1128q-25 33 -84 52h-18q-57 0 -97.5 -40t-40.5 -96q0 -74 62 -112q31 53 73 100v10h-12v7h12v12h7v-12h6q43 42 92 79zM1407 297q0 111 -86 207q-109 123 -291 112l-69 -4v-307q0 -145 18 -188q35 -84 160 -84q119 0 193.5 71.5 t74.5 192.5zM795 291v637v63q-37 -90 -133 -90q-41 0 -74 21q-80 -141 -80 -304q0 -170 86 -315q31 14 65 14q102 0 136 -96v70zM793 201q-8 47 -46 78.5t-88 31.5q-33 0 -61 -14q68 -113 176 -186q15 31 19 90zM770 104q-109 76 -178 189q-70 -39 -70 -119q0 -55 40 -95 t97 -40q10 0 21 2q67 20 90 63zM1194 932h-12v-12h-6v12h-13v6h13v14h6v-14h12v-6zM1139 936h-15v-10h-6v10h-12v8h12v12h6v-12h15v-8zM1210 309h-14v-12h-6v12h-12v6h12v15h6v-15h14v-6zM1153 324h-12v-13h-6v13h-13v6h13v12h6v-12h12v-6zM678 172h-12v-12h-7v12h-12v6h12 v15h7v-15h12v-6z" />
<glyph unicode="c" d="M1755 618q0 -193 -106 -350q-27 -104 -72 -209q-154 -76 -365 -75q-299 0 -487 149q-227 180 -227 485q0 260 184 444.5t444 184.5q43 0 86 -4h17q231 0 387 -96v-131q139 -175 139 -398zM1749 618q0 217 -133 388v-152h-21q4 -33 4 -63q0 -68 -18 -132q66 -102 66 -223 q0 -29 -5 -57l7 16l26 -12q-8 -47 -20 -96q94 151 94 331zM1593 791q0 117 -58 218t-161 160q-68 31 -151 31q-61 0 -119 -12q182 -4 308 -134t126 -311q0 -14 -2 -28q23 -23 39 -49q18 62 18 125zM1573 657q-16 27 -37 50q-12 -156 -119 -269q113 84 156 219zM1532 743 q0 182 -129 311.5t-311 127.5h-13q-150 -43 -243 -167t-115 -292q20 -133 113 -234q20 150 134.5 252.5t270.5 102.5q172 0 291 -123q2 10 2 22zM1167 1241h-41q-233 0 -407 -151.5t-209 -376.5q39 211 203 354q180 158 454 174zM1530 713q-119 125 -291 125 q-154 0 -267.5 -102.5t-131.5 -252.5q129 -133 315 -133q125 0 231 68q132 119 144 295zM1640 436q0 117 -63 215q-49 -154 -186 -239q-127 -115 -299 -115q-137 0 -250 78q23 -145 135.5 -243.5t261.5 -98.5q127 0 229 73q88 74 164 248q8 41 8 82zM1360 395 q-96 -51 -205 -51q-186 0 -315 131q-2 -20 -2 -39q0 -27 2 -53q115 -80 252 -80q149 0 268 92zM834 387q-2 25 -3 49q0 23 3 45q-90 94 -117 221q-4 -39 -4 -75q0 -63 12 -125q46 -68 109 -115zM1071 63q-205 92 -235 316q-63 45 -107 106q33 -147 126 -259t216 -163zM997 8 q-63 16 -123 39q60 -25 123 -39zM1169 786h-12v-12h-6v12h-12v7h12v12h6v-12h12v-7zM1274 664h-12v-13h-7v13h-12v6h12v14h7v-14h12v-6zM1106 743h-14v-12h-7v12h-10v7h10v12h7v-12h14v-7zM1143 614h-15v-12h-6v12h-12v7h12v14h6v-14h15v-7zM1235 432h-14v-10h-7v10h-12v6 h12v15h7v-15h14v-6z" />
<glyph unicode="d" d="M1812 614q0 -336 -272 -514l-2 2q-8 -4 -14 -10v-2q-168 -104 -348 -104q-47 0 -56 2q-29 -2 -57 -2l-516 6v28q41 6 71 13h-12q-66 0 -113 47t-47 113t45.5 111.5t110.5 47.5q-57 125 -57 262q0 139 57 263q-68 0 -115 47t-47 112q0 66 46 113t112 49q-16 2 -37 6v29 l416 14q94 4 176 -2h23q156 0 317 -86v-2q8 -6 16 -10v2q303 -173 303 -535zM952 1204q-35 2 -34 0v-14q16 8 34 14zM1612 584q0 299 -191 463q-170 150 -450 157q-27 -10 -53 -20v-910q0 -115 34 -165q51 -74 199 -74q176 0 303 117q158 149 158 432zM754 1079l-2 -2v0z M754 1036q0 18 -4 35q-86 -80 -138 -188q59 6 100.5 50t41.5 103zM750 1079q-33 111 -150 111q-63 0 -108.5 -45t-45.5 -109q0 -66 46.5 -109.5t111.5 -43.5q54 112 146 196zM610 881l-2 2l-2 -2h4zM762 293v637q0 66 -2 96q-4 -59 -47 -102t-105 -47q-57 -123 -57 -263 q0 -137 57 -262q55 0 97.5 -33.5t56.5 -85.5v60zM760 203q-2 59 -45 100t-103 43q51 -109 144 -192q4 20 4 49zM754 147q-94 84 -150 199q-61 0 -106 -45t-45 -108t45 -108.5t108 -45.5q109 0 146 102zM1239 606h-12v-12h-8v12h-11v6h11v15h8v-15h12v-6zM1194 608h-14v-10 h-6v10h-13v6h13v15h6v-15h14v-6zM618 1034h-12v-12h-6v12h-12v6h12v15h6v-15h12v-6zM623 193h-15v-13h-6v13h-12v6h12v14h6v-14h15v-6z" />
<glyph unicode="e" d="M1782 616q0 -213 -127 -380q-14 -123 -53 -252h-1039v28q45 6 78 15h-4q-68 -2 -115 46t-47 115q0 113 107 152q-63 131 -64 276q0 145 64 275q-111 37 -111 153q0 63 42 109.5t105 52.5q-25 4 -55 6v35h543h21.5h22.5h22.5h23.5h369l-11 -145q228 -189 228 -486z M1491 1024q0 63 -45 108.5t-111 45.5q-63 0 -108 -45.5t-45 -108.5q0 -18 2 -35q35 16 71 17q55 0 98.5 -34t57.5 -85q80 45 80 137zM1405 885q-12 49 -54 81.5t-96 32.5q-37 0 -69 -16q14 -51 55 -83t94 -32q37 1 70 17zM1411 844q0 16 -4 35q-33 -16 -72 -17q-53 0 -97 33 t-58 84q-80 -43 -80 -135q0 -63 46 -109.5t109 -46.5t109.5 46.5t46.5 109.5zM1337 1184q-57 14 -194 14h-180v-522h188q76 0 115 6h-11q-68 0 -114.5 47t-46.5 115q0 96 86 143q-4 16 -4 37q0 66 47 114t112 46h2zM1776 616q0 291 -222 478l-10 -138h-33q-2 53 -16 93 q2 -12 2 -25q0 -98 -84 -143q4 -18 4 -37v-15q0 8 2 17h27v-418h-27q-2 6 -2 12v-8q0 -66 -47 -114t-115 -48t-114.5 48.5t-46.5 113.5q0 59 36.5 103.5t92.5 56.5h-72h-188v-303q0 -152 55 -203t221 -51q176 0 267 73.5t122 243.5h35q-2 -55 -8 -104q121 163 121 368z M788 1044q0 37 -16 70q-117 -88 -182 -219q20 -6 43 -6q63 0 109 46t46 109zM1411 432q0 111 -100 146q-18 6 -49 10h-7q-63 2 -109 -44t-46 -112q0 -63 46 -109.5t109 -46.5t109.5 46.5t46.5 109.5zM768 1120q-43 80 -135 80q-66 0 -111 -45t-45 -111q0 -113 107 -147 q65 133 184 223zM797 289v655q0 47 -4 82q-6 -61 -52.5 -102t-107.5 -41q-23 0 -45 6q-63 -129 -64 -273q0 -145 64 -274q25 8 49 8q57 0 102 -37t56 -92q2 23 2 68zM793 188q0 63 -46.5 109.5t-109.5 46.5q-25 0 -45 -8q66 -131 182 -219q19 32 19 71zM772 111 q-121 90 -186 223q-104 -37 -105 -146q0 -66 45 -110.5t111 -44.5q90 0 135 78zM1352 1022h-13v-12h-6v12h-12v6h12v12h6v-12h13v-6zM1272 840h-15v-13h-6v13h-12v6h12v14h6v-14h15v-6zM1272 432h-15v-12h-6v12h-12v6h12v13h6v-13h15v-6zM645 1040h-12v-12h-6v12h-13v7h13 v14h6v-14h12v-7zM653 186h-14v-12h-6v12h-12v7h12v12h6v-12h14v-7z" />
<glyph unicode="f" d="M1784 616q0 -227 -145.5 -402t-364.5 -218v-12h-664v28q39 6 70 13h-21q-78 0 -134 55t-56 135q0 111 96 164q-45 115 -45 237q0 178 92 330q-55 41 -55 111q0 57 41 98t98 41q16 0 33 -4q-43 14 -119 22v35h987l-16 -170q203 -187 203 -463zM1526 997q0 76 -54.5 129.5 t-130.5 53.5t-130 -53.5t-54 -129.5t53 -129q41 66 117 66q90 0 127 -82q72 55 72 145zM1448 848q-33 80 -121 80q-74 0 -113 -64q53 -51 127 -51q60 0 107 35zM1364 1186q-59 14 -190 14h-162v-553h198q82 0 125 8h-8q-57 0 -98 41t-41 99q0 37 18 67q-55 57 -55 135 t56.5 134.5t133.5 56.5q13 0 23 -2zM1460 795q0 25 -8 47q-49 -35 -111 -35h-12v-10h12v-6h-12v-13h-6v13h-12v6h12v10q-63 8 -111 51q-16 -29 -16 -63q0 -55 38 -94t93 -39t94 39t39 94zM1778 616q0 270 -199 457l-12 -121h-33q0 16 -2 31q-6 -86 -76 -137q10 -25 10 -51 q0 -12 -2 -27q8 31 13 74h28v-455h-28q0 12 -2 25q-6 -53 -45 -89t-95 -36q-57 0 -97 41t-40 98q0 53 36 92t89 45q-29 2 -113 2h-198v-276v-58q33 94 133 95q57 0 97 -41t40 -99q0 -57 -40 -98t-97 -41q-18 0 -37 6q51 -23 166 -41v-8q217 43 360.5 215t143.5 397z M1468 426q0 53 -38.5 92t-94.5 39q-53 0 -92 -39t-39 -92q0 -55 39 -94t92 -39q55 0 94 39t39 94zM827 1057q0 43 -24 78q-49 -33 -92 -74h2v-6h-8l-7 -6v-7h-4q-41 -45 -73 -94q35 -25 75 -24q53 0 92 39t39 94zM799 1141q-41 49 -103 49q-55 0 -94 -39t-39 -94 q0 -66 53 -105q33 53 76 99v4h-12v6h12v12h6v-12h4q46 45 97 80zM844 944q0 86 -13 133q2 -10 3 -20q0 -57 -40 -98t-98 -41q-43 0 -78 24q-92 -150 -92 -326q0 -123 45 -233q41 20 88 20q66 0 116 -38.5t67 -98.5zM1276 186q0 55 -39 94t-92 39q-49 0 -86 -31.5t-45 -78.5 v0q2 -61 18 -94q39 -59 113 -60q53 0 92 38t39 93zM842 236q-8 70 -59.5 115.5t-123.5 45.5q-45 0 -86 -20q37 -88 97 -160h4v-4q55 -66 129 -115q25 31 35 68q4 27 4 70zM662 217l-3 2v-2h3zM799 92q-74 51 -131 119h-9v-12h-6v12h-12v6h12v10q-53 68 -86 146 q-92 -51 -92 -158q0 -78 54.5 -131t129.5 -53q85 0 140 61zM1358 991h-15v-12h-6v12h-12v6h12v13h6v-13h15v-6zM1354 420h-15v-12h-6v12h-12v6h12v14h6v-14h15v-6zM1163 184h-14v-12h-6v12h-13v6h13v13h6v-13h14v-6z" />
<glyph unicode="g" d="M1825 623q0 -78 -17 -152q6 -20 7 -43q0 -74 -70 -115q-45 -74 -88 -118q-16 -16 -53 -48h47v-32q-313 -131 -541 -131q-289 0 -479 161q-203 170 -203 451q0 309 240 489q215 162 532 162q78 0 168 -22q82 -10 199 -49l-2 -46q260 -188 260 -507zM1819 623 q0 313 -254 499v-45q229 -172 229 -459q0 -53 -10 -106q12 -14 20 -31q15 70 15 142zM1786 618q0 281 -221 451l-2 -209h-27q8 -39 8 -78q0 -106 -51 -198h199v-27q51 -2 86 -39q8 49 8 100zM1808 428q0 16 -4 31q-18 -70 -53 -135q57 34 57 104zM1800 471q-6 18 -18 33 q-23 -106 -82 -199q20 4 39 12q41 72 61 154zM1776 510q-35 41 -90 41q-98 0 -119 -94v2q-2 -12 -4 -29q0 -53 35.5 -90t87.5 -35h6q64 94 84 205zM1206 1192q-43 8 -86 8q-141 0 -252.5 -85t-148.5 -218q66 131 197.5 211t289.5 84zM1688 299h-2q-96 -2 -123 94v-227 q74 57 125 133zM1538 782q0 131 -92 260q-102 143 -225 144q-178 0 -340 -111q-178 -123 -179 -293q0 -158 106.5 -276.5t264.5 -136.5l-2 14q-2 61 42 109.5t108 54.5l-60 10v27h326q51 92 51 198zM1735 309q-18 -8 -39 -10q-55 -82 -133 -141v-11h36q83 70 136 162z M1378 455q-25 47 -67 69q-4 0 -8 4q-37 12 -66 13q-66 0 -114 -47.5t-46 -110.5l2 -14q20 -2 41 -2q59 0 115 14h-12v8h12v12h6v-12h12q70 23 125 66zM940 1167q-141 -57 -221 -191t-80 -310q0 -102 27 -197q-18 74 -19 149q0 135 60 254q43 205 233 295zM1397 383 q0 35 -15 68q-63 -51 -141 -74v-6h-6v4q-76 -20 -156 -13q8 -59 53.5 -99t104.5 -40q66 0 113 47t47 113zM1401 188v127q0 18 -2 35q-10 -57 -56.5 -95t-105.5 -38q-61 0 -109.5 42t-54.5 103q-160 18 -268.5 139.5t-108.5 280.5q0 35 6 66q-49 -109 -49 -230 q0 -233 166 -400t402 -167q76 0 149 21q31 22 31 116zM1702 426h-12v-12h-7v12h-12v6h12v12h7v-12h12v-6zM1219 743h-13v-12h-6v12h-12v7h12v14h6v-14h13v-7zM1137 778h-13v-12h-6v12h-12v6h12v15h6v-15h13v-6zM1233 618h-14v-12h-7v12h-12v-12h-6v12h-12v7h12v12h6v-12h12 v12h7v-12h14v-7zM1067 709h-12v-13h-6v13h-13v6h13v14h6v-14h12v-6zM1044 618h-14v-12h-6v12h-12v7h12v12h6v-12h14v-7z" />
<glyph unicode="h" d="M1827 160q0 -55 -36 -95t-89 -49q8 0 16 -2v-32h-497v8q-45 -6 -93 -6q-47 0 -96 6v-8h-497v32q8 2 16 2q-53 8 -89 48t-36 96q0 61 45 104t107 39q-82 145 -82 313q0 164 79 308h-6q-59 -2 -101 41t-42 102q0 55 38 96t93 47q-12 2 -22 4v37h497v-8q47 6 96 6 q47 0 93 -6v8h497v-37l-14 -4q53 -6 88 -47t35 -94q0 -59 -43 -103t-103 -40q80 -143 80 -310q0 -168 -82 -313q61 2 104.5 -40t43.5 -103zM1819 1069q0 55 -40 94t-96 39q-49 0 -86.5 -31.5t-46.5 -83.5q76 -66 125 -151h8q55 0 95.5 39t40.5 94zM1665 936q-47 78 -115 141 v-8q0 -51 33 -88t82 -45zM1407 1065q0 55 -39 94t-94 39q-57 0 -96 -39t-39 -94t39 -95t96 -40q55 0 94 40t39 95zM1753 616q0 166 -82 310q-49 4 -85 38.5t-44 82.5q-2 -25 -2 -103v-655q0 -78 2 -103q16 102 125 117q86 143 86 313zM1411 944v80q-31 -102 -137 -102 q-61 0 -103.5 42t-42.5 101q0 55 37 95t90 46q-16 4 -34 8v19q-45 8 -93 8q-49 0 -96 -8v-19q-18 -4 -35 -8q53 -6 90 -46t37 -95q0 -59 -42 -101t-103 -42q-106 0 -137 102v-80v-266h569v266zM1114 1065q0 55 -39 94t-96 39q-55 0 -94 -39t-39 -94t39 -95t94 -40 q57 0 96 40t39 95zM1819 160q0 55 -40 96t-96 37h-10q-49 -84 -123 -150q6 -53 47 -86q20 -16 64 -30q12 -2 22 -2q55 0 95.5 40t40.5 95zM1661 291q-47 -8 -80 -45t-31 -86v-4q66 61 111 135zM702 1067v6q-66 -61 -110 -139q47 8 79.5 46t30.5 87zM702 1083q-6 51 -43.5 84 t-89.5 33q-55 0 -95 -39t-40 -94t40 -95t95 -40q6 0 11 2q48 83 122 149zM1407 162q0 55 -39 94t-94 39q-57 0 -96 -39t-39 -94t39 -95t96 -40q4 0 8 2q125 33 125 133zM1411 289v301h-569v-301v-86q31 102 137 102q61 0 103 -42t42 -101q0 -53 -34.5 -93t-85.5 -49 q12 -4 28 -6v-14q47 -8 96 -8q47 0 93 8v14q16 2 28 6q-51 8 -86 48.5t-35 93.5q0 59 42 101t104 42q106 0 137 -102v86zM709 289v655v84q-25 -92 -123 -104q-82 -141 -82 -308q0 -170 86 -315q92 -14 119 -102v90zM1114 162q0 55 -39 94t-96 39q-55 0 -94 -39t-39 -94 q0 -53 29.5 -84t95.5 -49q4 -2 8 -2q57 0 96 40t39 95zM702 160q0 49 -29.5 85t-76.5 46q45 -72 106 -131zM702 147q-70 63 -118 146h-15q-55 0 -95 -39t-40 -94t40 -95t95 -40q10 0 21 2q104 32 112 120zM1653 1200q-18 -6 -33 -12q17 8 33 12zM1700 1061h-14v-12h-9v12 h-12v10h12v12h9v-12h14v-10zM1286 1061h-14v-12h-8v12h-13v10h13v12h8v-12h14v-10zM993 1059h-14v-12h-8v12h-13v10h13v12h8v-12h14v-10zM1698 156h-15v-13h-8v13h-12v10h12v12h8v-12h15v-10zM586 1065h-13v-10h-10v10h-12v10h12v15h10v-15h13v-10zM1401 121q-8 -27 -25 -45 q17 20 25 45zM1288 156h-12v-13h-10v13h-13v10h13v12h10v-12h12v-10zM995 154h-14v-13h-8v13h-12v10h12v12h8v-12h14v-10zM877 76q-16 18 -25 43q9 -23 25 -43zM584 156h-13v-13h-10v13h-12v10h12v12h10v-12h13v-10z" />
<glyph unicode="i" d="M1759 618q0 -199 -111.5 -358.5t-289.5 -230.5q35 -6 84 -15v-32h-627v32q49 6 80 15q-178 70 -289.5 230.5t-111.5 358.5q0 195 110 357q109 156 283 227q-29 6 -72 12v37h627v-37q-45 -6 -76 -12q176 -72 284.5 -230.5t108.5 -353.5zM1362 1194l-12 4q-6 -2 -13 -4 q4 2 9 2q8 0 16 -2zM1460 1069q0 49 -33.5 83t-80.5 34q-49 0 -83 -34t-34 -83q0 -47 33.5 -82t83.5 -35q47 0 80.5 35t33.5 82zM905 1200v0h-2h2zM1749 618q0 170 -86 315.5t-231 227.5q39 -39 38 -92q0 -51 -36.5 -88t-87.5 -37q-53 0 -90 36t-37 87q-6 -41 -7 -123v-655 q0 -76 5 -117q4 49 39.5 83t86.5 34t88 -37t37 -88t-36 -90q145 82 231 227t86 317zM1030 1073q0 49 -33.5 83t-81.5 34q-49 0 -82.5 -34t-33.5 -83q0 -47 33.5 -82t82.5 -35q47 0 81 35t34 82zM1458 164q0 47 -33.5 82t-81.5 35q-49 0 -82.5 -35t-33.5 -82q0 -49 33.5 -83 t82.5 -34q47 0 81 34t34 83zM1047 289v655q0 78 -7 117q-4 -47 -40.5 -80t-84.5 -33q-53 0 -90 37t-37 88q0 53 39 90q-147 -82 -235 -227t-88 -318q0 -172 85 -315t228 -225q-31 35 -31 82q0 51 37 88t90 37q51 0 88 -37t37 -88q9 43 9 129zM1356 39q-6 -2 -13 -2 q-10 0 -20 2q10 -2 20 -6zM1028 160q0 47 -33.5 81.5t-81.5 34.5q-49 0 -82.5 -34.5t-33.5 -81.5q0 -49 33.5 -83t82.5 -34q47 0 81 34t34 83zM913 33v0h-2v0h2zM1360 1065h-12v-12h-11v12h-12v8h12v14h11v-14h12v-8zM930 1071h-12v-12h-11v12h-12v8h12v15h11v-15h12v-8z M1362 156h-12v-13h-11v13h-12v10h12v12h11v-12h12v-10zM926 154h-15v-13h-8v13h-12v10h12v12h8v-12h15v-10z" />
<glyph unicode="j" d="M1815 629q0 -256 -180.5 -436.5t-436.5 -180.5q-84 0 -166 23q-45 -23 -110 -51l-13 24q-59 -20 -123 -20q-143 0 -245.5 101t-102.5 247q0 176 144 282v11q-2 201 114.5 360.5t300.5 222.5q-23 4 -51 9v28h512v-28q-33 -4 -57 -9q186 -66 300 -225t114 -358zM1491 1100 q0 43 -30.5 73.5t-74.5 30.5q-43 0 -72.5 -30.5t-29.5 -73.5t29.5 -74t72.5 -31t74 31t31 74zM1133 1098q0 43 -31 73.5t-74 30.5t-73.5 -30.5t-30.5 -73.5t30.5 -74t73.5 -31t74 31t31 74zM1808 629q0 180 -95 327.5t-251 223.5q35 -33 35 -80q0 -45 -32.5 -78t-78.5 -33 q-90 0 -106 90q-2 -25 -2 -75v-529q0 -195 -39 -272q-45 -88 -199 -164q78 -20 158 -21q252 0 431 179.5t179 431.5zM1143 541v463q0 72 -4 100v-6q0 -45 -33 -78t-78 -33t-77.5 33t-32.5 78t31.5 76.5t74.5 33.5q-6 0 -14 2q-193 -61 -308.5 -223t-113.5 -364q90 61 198 61 q141 0 242.5 -96t108.5 -234q6 66 6 187zM1130 336q0 141 -100 241.5t-244 100.5q-111 0 -198 -64q4 -190 114.5 -341.5t282.5 -215.5q145 103 145 279zM979 51q-172 66 -281.5 217.5t-115.5 341.5q-137 -104 -138 -274q0 -141 100.5 -241.5t241.5 -100.5q107 0 193 57z M1403 1102h-12v-12h-7v12h-12v6h12v12h7v-12h12v-6zM1040 1094h-12v-13h-6v13h-12v6h12v12h6v-12h12v-6zM801 336h-13v-12h-6v12h-12v6h12v12h6v-12h13v-6z" />
<glyph unicode="k" d="M2054 469q0 -180 -129 -308t-309 -128q-72 0 -141 22q55 -29 110 -43l-12 -28q-258 20 -399 98q-141 -78 -300 -78h-22q-14 2 -23 2h-581v29q47 6 82 14q-53 0 -92 39t-39 92q0 55 40 95t93 38h6q-86 143 -86 312q0 276 209 462q-14 63 -59.5 89t-153.5 41v32h581v-4h45 q53 0 109 -8v12h477v-32q-8 -2 -16 -3q23 2 45 3q182 0 310 -129.5t128 -311.5q127 -127 127 -307zM467 1067q0 -55 -39 -94t-92 -39q-55 0 -94 39t-39 94q0 53 39 92t94 39q53 0 92 -39t39 -92zM1921 784q-2 176 -129 301t-303 125q-139 0 -252 -82q139 -100 207 -258 q82 37 172 37q178 0 305 -123zM2048 469q0 174 -121 299q-4 -176 -132 -301t-306 -125v6q176 0 304 125t128 303q0 4 2 6v-4v-6q-129 129 -307 129q-88 0 -170 -35l29 -80h6v13h6v-13h12v-6h-12q-2 -8 -6 -12v12h-6q20 -76 20 -155q0 -266 -192 -451q127 -135 313 -135 q178 0 305 126t127 304zM1438 868q-68 156 -205 256q-174 -129 -174 -346q0 -174 121 -299q2 127 72.5 232.5t185.5 156.5zM1489 625q0 123 -49 237q-113 -51 -183 -153q-72 -109 -71 -236q100 -100 239 -121q64 128 64 273zM897 1075q0 51 -37 88t-88 37t-89 -36t-38 -89 q0 -51 38 -88t89 -37t88 37t37 88zM1282 186q-104 123 -102 285q-127 127 -127 307q0 158 100 279q-82 -70 -188 -187l-156 -176q106 -123 213 -245q147 -167 260 -263zM1421 348q-137 18 -237 119q0 -166 112 -289q78 74 125 170zM1167 84q-104 59 -227 201 q-141 162 -283 323q117 125 232 250q199 223 198 293q0 57 -104 66v14q-55 8 -109 8h-45v-22q-29 -4 -51 -11q53 -2 89 -40t36 -91q0 -55 -39 -93t-92 -38t-92 37t-41 88q-4 -33 -4 -121v-663q0 -51 6 -86q2 51 41 87t90 36q53 0 92 -39t39 -93q0 -55 -39 -94t-92 -39 q-16 0 -33 4q43 -14 140 -26v-25q153 2 288 74zM461 1067q0 51 -37 88t-88 37q-53 0 -90 -37t-37 -88t37 -89t90 -38q51 0 88 38t37 89zM469 287v684q0 70 -6 110q-203 -184 -203 -456q0 -168 86 -312q51 -6 87 -47t30 -92q6 37 6 113zM897 190q0 51 -37 88t-88 37 t-89 -36.5t-38 -88.5q0 -53 38 -90t89 -37t88 37t37 90zM457 182q0 51 -37 88t-88 37t-88 -37t-37 -88t37 -89t88 -38t88 38t37 89zM1094 1147q0 -29 -20.5 -48.5t-47.5 -19.5q-29 0 -48.5 19.5t-19.5 48.5q0 27 19.5 47t48.5 20q27 0 47.5 -20t20.5 -47zM1632 467h-12v-12 h-6v12h-12v6h12v12h6v-12h12v-6zM791 1075h-13v-12h-6v12h-12v6h12v13h6v-13h13v-6zM354 1065h-12v-12h-6v12h-12v6h12v12h6v-12h12v-6zM797 180h-15v-10h-6v10h-12v6h12v15h6v-15h15v-6zM338 180h-12v-10h-7v10h-12v6h12v15h7v-15h12v-6zM1087 1147q0 61 -61 61t-61 -61 t61 -62q61 1 61 62zM1042 1145h-14v-10h-6v10h-10v8h10v12h6v-12h14v-8z" />
<glyph unicode="l" d="M1769 614q0 -150 -67 -282h2l-107 -348h-1040v28q51 8 84 17h-6q-61 -2 -106.5 43t-45.5 108q0 102 97 142q-72 137 -72 292q0 158 74 297q-98 37 -99 142q0 61 42 105t104 46q-31 6 -72 10v35h627v-4q248 -18 416.5 -199.5t168.5 -431.5zM1247 1053q0 61 -42 103 t-103 42q-12 0 -23 -2q-111 -31 -123 -141v-2q0 -59 43 -102.5t103 -43.5q61 0 103 43.5t42 102.5zM1763 614q0 248 -168 427.5t-411 195.5v-23q-41 -4 -72 -10q59 -4 100 -48t41 -103q0 -63 -44 -107.5t-107 -44.5q-53 0 -94 34t-54 85v-76v-606q0 -193 29 -283l227 -16 q127 -8 203 14q61 31 117 76q45 47 145 215l21 -10q67 133 67 280zM780 1053q0 35 -14 63q-111 -82 -176 -201q23 -8 45 -8q61 0 103 43.5t42 102.5zM764 1122q-43 76 -129 76q-59 0 -102.5 -42t-43.5 -103q0 -100 95 -135q67 120 180 204zM788 289v655q0 63 -2 94 q-6 -57 -49 -97t-102 -40q-25 0 -47 8q-74 -137 -74 -295q0 -154 72 -290q25 8 49 8q59 0 102 -40t49 -97q2 31 2 94zM780 180q0 59 -42 102.5t-103 43.5q-23 0 -45 -9q66 -121 176 -202q14 30 14 65zM762 109q-113 84 -178 206q-94 -35 -95 -135q0 -61 43 -103t103 -42 q86 0 127 74zM1118 1053h-12v-13h-6v13h-13v6h13v12h6v-12h12v-6zM1157 612h-14v-12h-6v12h-13v6h13v13h6v-13h14v-6zM651 1053h-12v-13h-6v13h-12v6h12v12h6v-12h12v-6zM649 180h-12v-12h-6v12h-13v6h13v13h6v-13h12v-6z" />
<glyph unicode="m" d="M2081 166q0 -57 -39 -97t-94 -42q25 -6 59 -15v-28h-616v28q29 6 84 19q-55 0 -94.5 39t-43.5 94q-98 -96 -227 -144l-16 -36h-23l-8 22q-82 -23 -166 -22q-53 0 -106 8v-8h-519v28q37 8 64 17q-10 -2 -23 -2q-59 0 -100 42t-41 101q0 57 41 99t100 42q16 0 33 -4 q-80 143 -80 307q0 180 92 330q-63 43 -63 119q0 59 41 101t100 42q4 0 8 -2q-33 10 -73 10v35h399l4 -14q61 12 123 12q176 0 323.5 -89t229.5 -236l35 75q51 113 51 170q0 35 -23 50l7 32h409v-35q-31 -4 -55 -12h8q59 0 100 -41t41 -100q0 -57 -40.5 -99t-100.5 -42 q-51 0 -90 32.5t-47 81.5v-14l41 -674q8 -117 14 -160q6 53 46 88t93 35q59 0 100.5 -42t41.5 -101zM2015 1061q0 55 -39 95t-94 40t-94 -40t-39 -95t39 -94t94 -39t94 39t39 94zM1618 199v18l-51 809h-4l-80 -176q45 -113 45 -236q0 -162 -78 -305q14 4 29 4q51 0 90 -32.5 t49 -81.5zM2073 166q0 55 -39 95t-95 40q-55 0 -94 -40t-39 -95q0 -94 103 -129q16 -4 30 -4q55 0 94.5 39t39.5 94zM1446 913q-80 147 -227.5 236.5t-321.5 89.5q-61 0 -121 -12q-16 -16 -16 -49q0 -51 37 -136l352 -780zM1522 614q0 117 -43 226l-365 -809q180 68 294 227 t114 356zM1612 172q0 55 -39 94t-94 39q-16 0 -35 -4q-41 -72 -98 -131q0 -55 38.5 -94t94.5 -39q55 0 94 40t39 95zM569 1063q0 39 -20 70q-109 -74 -180 -185q31 -18 67 -18q55 0 94 39t39 94zM545 1141q-39 57 -109 57q-55 0 -95 -40t-40 -95q0 -72 61 -111 q72 113 183 189zM1059 12l-428 967q-47 -475 -60 -756q31 100 136 101q57 0 99 -41t42 -101q0 -59 -42 -100t-99 -41q-12 0 -25 2q45 -18 109 -31v-12q53 -8 106 -8q82 0 162 20zM569 1018q-33 -96 -133 -96q-39 0 -71 18q-90 -147 -91 -326q0 -166 82 -311q94 -29 99 -127 l6 -6q10 33 18 100l72 525zM840 182q0 55 -39 94t-94 39t-94.5 -38.5t-39.5 -94.5q0 -55 39 -94t95 -39q55 0 94 39t39 94zM446 184q-10 80 -84 109q37 -60 84 -109zM446 172q-55 57 -94 125q-18 6 -39 6q-55 0 -94 -39t-39 -94q0 -57 39 -96t94 -39q57 0 96 40t37 97z M1894 1059h-12v-12h-8v12h-10v8h10v12h8v-12h12v-8zM1954 166h-12v-12h-9v12h-10v8h10v12h9v-12h12v-8zM1176 614h-13v-10h-8v10h-12v9h12v12h8v-12h13v-9zM1493 170h-12v-12h-8v12h-11v8h11v12h8v-12h12v-8zM449 1063h-13v-12h-8v12h-12v8h12v12h8v-12h13v-8zM721 180h-12 v-10h-9v10h-10v8h10v13h9v-13h12v-8zM326 168h-13v-12h-8v12h-10v8h10v12h8v-12h13v-8z" />
<glyph unicode="n" d="M1985 1024q0 -66 -46.5 -112t-111.5 -46q-66 0 -112 46t-46 112v14q-6 -25 -10 -61q-27 -217 -4 -1028l-29 -6q-82 98 -180 209q-180 -174 -428 -175q-29 0 -55 3h-537v28q23 2 39 4h-10q-76 0 -131.5 55.5t-55.5 131.5q0 74 49.5 127t120.5 59q-35 100 -35 207 q0 96 29 188q-63 14 -105 64.5t-42 118.5q0 76 55 131t133 55q18 0 39 -4q-45 16 -111 31l2 32h299l56 -59q123 57 260 57q152 0 287 -71q43 25 92 24h10q-33 8 -80 17v32h494v-26h6q63 2 110.5 -45t47.5 -113zM1976 1024q0 63 -44 107.5t-105 44.5q-63 0 -107.5 -44.5 t-44.5 -107.5q0 -61 44 -105.5t108 -44.5q61 0 105 44.5t44 105.5zM1581 834v88v24q-4 -35 -22 -65q12 -22 22 -47zM1575 973q0 74 -52.5 126t-125.5 52q-74 0 -127 -52t-53 -126t53 -126t127 -52t126 52t52 126zM1585 377l-2 436q-12 31 -29 61q-55 -88 -157 -88 q-78 0 -132.5 54.5t-54.5 132.5q0 102 86 157q-131 68 -278 68q-135 0 -254 -55l786 -840q21 35 35 74zM1585 264v92q-12 -31 -29 -59zM1440 156q-121 135 -410 438v-6h-12v-13h-8v13h-11v6h11v12h8v-12h12q-201 213 -311 334v-576q2 -88 10 -139q0 78 55.5 132t130.5 54 q78 0 132.5 -55t54.5 -131q0 -78 -54.5 -132t-132.5 -54q-14 0 -28 2q35 -12 82 -21v-22h49q246 0 422 170zM651 963q0 49 -26 92q-129 -109 -183 -269q14 -4 31 -4q74 0 126 53.5t52 127.5zM621 1061q-53 80 -148 80q-76 0 -128 -52.5t-52 -125.5q0 -63 40 -112.5 t101 -64.5q56 164 187 275zM1096 213q0 74 -53.5 126t-127.5 52t-126 -52t-52 -126t52.5 -127t125.5 -53q74 0 127.5 53t53.5 127zM659 606v271q0 37 -2 65q-6 -72 -59 -119t-125 -47q-16 0 -33 2q-31 -90 -30 -186q0 -106 36 -207q4 2 9 2q78 0 132 -55.5t54 -132.5v0 q18 88 18 407zM635 199q0 76 -53.5 128t-126.5 52q-74 0 -126.5 -52.5t-52.5 -127.5q0 -74 52.5 -126.5t126.5 -52.5t127 52.5t53 126.5zM1839 1020h-12v-10h-8v10h-11v8h11v12h8v-12h12v-8zM1409 971h-12v-10h-8v10h-11v8h11v12h8v-12h12v-8zM485 956h-12v-10h-8v10h-10v9 h10v12h8v-12h12v-9zM932 211h-10v-10h-9v10h-12v8h12v12h9v-12h10v-8zM467 197h-12v-13h-6v13h-13v8h13v10h6v-10h12v-8z" />
<glyph unicode="o" d="M1892 745l-174 -30q10 -59 11 -121q0 -225 -142 -385q-135 -152 -350 -195l27 -159l-9 -2l-28 159q-63 -12 -131 -12q-227 0 -383 145q-147 139 -183 361l-168 -31l-2 10l170 29q-8 51 -8 104q0 227 144 388q135 152 352 194l-31 178l8 2l33 -178q66 12 135 12 q221 0 373 -141q143 -135 180 -348l174 31zM1524 690q-41 180 -144 307q49 -82 50 -178q0 -80 -35 -151zM1421 819q0 139 -100 239.5t-240 100.5q-23 0 -47 -4l74 -418q35 8 68 8q119 0 213 -71q32 67 32 145zM1544 524q0 74 -18 158l-121 -23q121 -104 121 -264 q0 -23 -2 -43q20 82 20 172zM1382 666q-92 70 -206 69q-33 0 -66 -6l18 -108zM1378 655l-248 -43l23 -125q149 33 225 168zM1100 735l-15 80h-4v-10h-8v10h-10v8h10v13h8v-13h2l-57 332q-123 -20 -204 -115.5t-81 -220.5q0 -147 107 -248l29 4q78 129 223 160zM1516 395 q0 160 -123 262h-2q-76 -145 -236 -180l12 -74v9h11v-11h10v-10h-10v-10h-9q10 -51 60 -322q123 18 205 113.5t82 222.5zM1120 621l-18 106q-135 -31 -211 -149l207 36v7h10v12h8v-12h4zM1143 485l-21 125l-6 -2v-8h-8v8l-225 -41l-9 -18q90 -70 207 -70q31 0 62 6zM838 569 q-106 102 -107 250q0 53 17 103q-39 -100 -39 -220q0 -72 16 -153zM870 565l-12 -2l8 -8zM1219 57l-58 334h-4v10h2l-14 74q-31 -6 -64 -6q-119 0 -213 72q-33 -70 -32 -146q0 -139 100 -239.5t240 -100.5q23 0 43 2zM901 180q-74 94 -74 215q0 80 35 152q-8 6 -16 14 l-119 -20q47 -224 174 -361z" />
<glyph unicode="p" d="M1753 612q0 -231 -149.5 -405t-372.5 -213v-10h-643v28q61 8 100 19q-51 0 -88 36.5t-37 90.5q0 59 49 98q-113 160 -112 356q0 197 110 357q-51 37 -51 102q0 49 33 85t80 40q-31 6 -72 8v33q426 12 447 12q274 0 438 -123q268 -199 268 -514zM1745 612q0 283 -213 469 q59 -74 59 -176q0 -178 -157 -278q-123 -80 -320 -97l-6 29q289 39 289 295q0 170 -125 264q-113 86 -289 86v-915q0 -66 4 -103q8 43 43 73t80 30q51 0 88 -37t37 -88q0 -53 -37 -89t-88 -36h-16q43 -12 137 -27v-10q221 39 367.5 211t146.5 399zM780 1135q-20 33 -67 49 q-14 4 -29 4q-49 0 -84 -35t-35 -82q0 -61 51 -96q68 97 164 160zM801 1071q0 31 -17 57q-96 -63 -161 -157q29 -16 61 -17q47 0 82 34t35 83zM817 989q-2 51 -8 82v0q0 -51 -37 -88t-88 -37q-37 0 -66 19q-111 -160 -110 -353q0 -193 110 -352q31 23 70 23q47 0 82 -31 t41 -78q6 39 6 115v575q0 143 0 125zM1227 164q0 47 -34 82t-83 35t-83 -35t-34 -82q0 -49 34 -84t83 -35t83 35t34 84zM805 158q0 47 -35 81.5t-82 34.5q-37 0 -65 -20q29 -41 63 -76h4v-4l8 -8h4v-4q39 -37 86 -68q17 29 17 64zM782 88q-45 31 -86 70h-6v-11h-8v11h-10v8 h10v4q-37 37 -66 80q-45 -37 -45 -92q0 -49 34 -84t83 -35q59 0 94 49zM1206 883h-12v-11h-6v11h-12v8h12v12h6v-12h12v-8zM1174 881h-11v-11h-8v11h-12v8h12v12h8v-12h11v-8zM696 1065h-12v-10h-8v10h-12v8h12v12h8v-12h12v-8zM1143 608h-13v-12h-8v12h-12v8h12v13h8v-13 h13v-8zM1126 160h-12v-10h-8v10h-10v8h10v12h8v-12h12v-8z" />
<glyph unicode="q" d="M1903 -61q-82 -35 -162 -70q-96 -39 -170 -39q-90 0 -209 47q-41 14 -197 90l9 -55l-9 -2l-10 63q-104 49 -172 68l-86 27q-377 111 -448 430l-97 -19l-2 10l96 17q-14 68 -14 143q0 221 150 377q137 145 354 186l-16 88l10 3l14 -91q63 12 127 13q233 0 394 -140.5 t186 -365.5l90 14l2 -8l-90 -16q4 -33 4 -70q0 -197 -113.5 -343t-306.5 -208q129 -43 258 -84q154 -47 266 -47q63 0 135 12zM1458 684q-39 205 -164 346q80 -102 80 -233q0 -33 -4 -66q23 -27 41 -55zM1366 797q0 154 -108.5 261t-260.5 107q-23 0 -43 -2l56 -317 q39 8 80 8q160 0 272 -115q4 29 4 58zM1401 674q-14 25 -33 45q-6 -27 -16 -53zM1470 565q0 53 -10 111l-45 -8q49 -84 51 -176q4 36 4 73zM1360 727q-111 119 -270 119q-41 0 -78 -8l39 -224h8v-10h-6l28 -166q104 25 181.5 104t97.5 185zM1001 844l-57 317 q-135 -18 -225 -121.5t-90 -242.5q0 -137 90 -242q23 106 99.5 185t182.5 104zM1458 477q0 100 -53 189l-57 -11q-74 -182 -265 -227l56 -317q154 20 243 141q76 102 76 225zM1073 436l-31 166h5v-8h-9v10h-10v10h10v13v0l-37 209q-104 -27 -178.5 -105t-95.5 -184 q109 -119 270 -119q39 0 76 8zM709 551q-74 88 -88 205v-35q0 -88 24 -180zM1130 111l-55 315q-39 -8 -78 -8q-162 0 -272 117q-4 -29 -4 -58q0 -135 80 -231q119 -137 289 -137q20 0 40 2zM748 315q-37 76 -37 162q0 33 6 66v2l-70 -13q35 -121 101 -217zM1012 793h-13v-11 h-8v11h-10v10h10v10h8v-10h13v-10zM1104 473h-12v-10h-9v10h-12v8h12v13h9v-13h12v-8z" />
<glyph unicode="r" d="M2089 449q0 -188 -134 -322.5t-323 -134.5q-33 0 -65 4l-4 -33q-213 12 -232 14q-135 20 -207 91q-127 -76 -274 -88q-2 -2 -31 -3h-16h-9.5h-9.5h-577v29q66 10 106 23q-10 -2 -20 -2q-53 0 -91 38.5t-38 92.5q0 47 29.5 82.5t72.5 44.5q-84 145 -84 313q0 174 92 324 q-47 6 -78.5 42.5t-31.5 86.5q0 51 33.5 88t85.5 41q-27 4 -66 8v29l449 10q98 4 221 -17q166 -25 297 -127t192 -254q117 78 256 78q188 0 322.5 -134t134.5 -324zM2081 449q0 186 -131 318t-318 132q-139 0 -252 -78q41 -106 41 -223q0 -236 -155 -412q135 -188 366 -188 q186 0 317.5 132.5t131.5 318.5zM1370 825q-106 264 -377 353q172 -74 172 -248q0 -201 -223 -299l4 -15q94 -162 139 -227q82 -125 164 -209l6 8q-82 117 -81 261q-1 239 196 376zM1413 598q0 113 -41 219q-190 -135 -190 -368q0 -139 80 -254q151 172 151 403zM973 889 q0 150 -117 229q-102 70 -260 70v-582q150 0 256 68q121 76 121 215zM1296 137q-18 20 -36 43l-5 -4q21 -21 41 -39zM416 1051q0 10 -2 20q-74 -61 -127 -143h6q51 0 87 36t36 87zM412 1079q-23 94 -119 95q-49 0 -85 -36t-36 -87q0 -47 30.5 -82t76.5 -39q55 86 133 149z M1118 74l-2 2q-150 152 -254 366q-35 70 -71.5 94.5t-110.5 28.5q-27 2 -84 8v-292v-82q27 96 125 96q55 0 93 -39t38 -92t-38 -91t-93 -38h-8q45 -14 137 -29v-18q143 12 268 86zM430 281v569q0 137 -6 186q-6 -49 -43 -82.5t-88 -33.5q-4 0 -10 2q-92 -150 -93 -324 q0 -168 84 -311q10 2 19 2q53 0 91 -37t40 -88q6 41 6 117zM844 164q0 51 -36 87t-87 36q-49 0 -86 -36t-35 -87v-6q4 -27 8 -41q31 -76 113 -76q51 0 87 36t36 87zM416 158q0 51 -36 87t-87 36q-6 0 -12 -2q53 -86 131 -152q4 15 4 31zM410 119q-82 68 -138 160 q-45 -8 -72.5 -42t-27.5 -79q0 -51 36 -87t85 -36q88 0 117 84zM1649 444h-13v-10h-8v10h-10v9h10v12h8v-12h13v-9zM848 874h-12v-12h-9v12h-10v7h10v12h9v-12h12v-7zM782 874h-10v-12h-8v12h-12v7h12v12h8v-12h10v-7zM309 1047h-10v-11h-8v11h-12v8h12v12h8v-12h10v-8z M739 160h-12v-10h-8v10h-12v8h12v12h8v-12h12v-8zM313 156h-12v-11h-8v11h-12v8h12v12h8v-12h12v-8z" />
<glyph unicode="s" d="M1788 621h-47q0 -215 -134 -382t-339 -216q-66 -25 -135 -33v-25h-13v23q-25 -2 -49 -2q-182 0 -315 94l-11 55q-238 184 -239 486h-41v12h41q4 268 182 430q158 143 432 184v41h13v-41q27 4 51 4q145 0 266 -69l-2 -33q133 -82 212 -218t81 -298h47v-12zM1733 633 q-2 158 -79 292t-206 214l-12 -228h-33q-29 137 -72 201q-61 86 -180 86h-18v-453q63 -35 190 -112h410zM1120 754v444q-78 -10 -128 -63.5t-50 -133.5q0 -134 178 -247zM1733 621h-392q168 -119 168 -283q0 -193 -190 -293q182 61 298 219t116 357zM1040 1227 q-221 -29 -371.5 -198t-154.5 -396h440q-168 117 -168 278q0 113 76 201q67 78 178 115zM1331 260q0 145 -198 266v-483q88 8 143 65.5t55 151.5zM1120 41v491q-49 29 -147 89h-459q0 -293 229 -476l-43 240h37q39 -143 123 -235q102 -109 242 -109h18zM1176 1030h-13v-10 h-8v10q-6 0 -10 2t-2 4t12 2v13h8v-13h13v-8zM1180 971h-13v-10h-8v10q-6 0 -10 2t-2 4t12 2v12h8v-12h13v-8zM1071 254h-12v-12h-8v12h-11v8h11v12h8v-12h12v-8zM1038 254h-12v-12h-8v12h-10v8h10v12h8v-12h12v-8zM1075 195h-12v-13h-8v13h-11v6h11v12h8v-12h12v-6z M1042 195h-12v-13h-8v13h-10v6h10v12h8v-12h12v-6z" />
<glyph unicode="t" d="M1759 616q0 -147 -63.5 -280t-179.5 -217q-41 -88 -132 -94q33 -8 80 -15v-26h-657v26q43 6 76 13q-90 6 -129 81q-125 80 -195 224q-66 133 -65 288q0 160 73 297l-8 2l25 334h18q53 -55 90 -55h176q123 55 258 55t258 -55h193q27 0 49.5 18.5t42.5 36.5h17l24 -334 l-24 -4q73 -137 73 -295zM1640 981q-18 115 -131 139q72 -55 131 -139zM1642 952v13q-66 96 -149 157h-18q-70 4 -120 -47t-50 -123t50 -122t120 -50q72 0 120.5 51t46.5 121zM1364 1194q-113 47 -238 47t-237 -47h475zM1751 616q0 176 -100 334q-2 -74 -52.5 -125 t-123.5 -51q-74 0 -126.5 52.5t-52.5 125.5q0 70 48.5 122t115.5 56q-45 6 -141 7h-107v-818q0 -74 2 -112q10 57 54.5 95t103.5 38q63 0 110.5 -47t47.5 -111q0 -27 -8 -49q229 186 229 483zM729 1110q-59 -27 -88 -88q41 49 88 88zM969 952q0 70 -50.5 120t-121.5 50 q-23 0 -43 -4q-68 -51 -121 -119q-6 -23 -6 -47q0 -72 50 -122t120 -50q72 0 122 50t50 122zM1522 182q0 61 -44 105.5t-106 44.5q-63 0 -107 -44t-44 -106q0 -53 36 -98q41 -51 93 -51q86 33 159 90q13 28 13 59zM1501 109q-61 -47 -135 -78h6q86 0 129 78zM1051 1137h-117 q-82 0 -127 -7q72 -4 121 -55t49 -123q0 -74 -53.5 -126t-126.5 -52q-74 0 -126.5 52.5t-52.5 125.5q0 16 3 33l-21 -33l-14 -41l-11 2q-74 -139 -73 -297q0 -307 243 -495q-10 29 -10 61q0 63 46 110.5t112 47.5q57 0 102 -39t54 -96q2 37 2 98v834zM1042 182 q0 61 -44 105.5t-105 44.5t-106.5 -44t-45.5 -106q0 -39 19 -71q68 -49 145 -78q59 4 98 47t39 102zM887 31q-61 25 -117 63q43 -59 117 -63zM1495 950h-12v-10h-8v10h-13v8h13v13h8v-13h12v-8zM815 952h-12v-10h-8v10h-13v9h13v12h8v-12h12v-9zM1386 178h-12v-10h-8v10h-10 v8h10v13h8v-13h12v-8zM905 178h-12v-10h-6v10h-13v8h13v13h6v-13h12v-8z" />
<glyph unicode="u" d="M1946 1063q0 -61 -44 -105.5t-106 -44.5q-61 0 -105 44t-44 106v0q-8 -39 -11 -207q-10 -408 -10 -420q-23 -219 -121 -323q-123 -129 -393 -129h-154q-262 0 -446 185t-184 445q0 160 73 299q-94 37 -94 140q0 61 47 107t111 40q-37 8 -88 14v35h631v-4q147 -12 274 -88 q53 47 119 39q-47 14 -113 18v35h531v-35q-12 0 -25 -2h2q61 0 105.5 -44t44.5 -105zM1937 1063q0 57 -41 99t-100 42q-57 0 -99 -42t-42 -99q0 -59 42 -100t99 -41q59 0 100 41t41 100zM1536 1038q0 61 -44 105.5t-108 44.5q-53 0 -96 -35q133 -80 211 -213q37 43 37 98z M1563 799v67q0 143 -23 209q4 -18 4 -37q0 -61 -39 -106q35 -61 58 -133zM1051 1051q0 57 -41 98t-101 41q-57 0 -98 -41t-41 -98q0 -59 41 -100.5t98 -41.5q59 0 100.5 41.5t41.5 100.5zM1563 770q-53 195 -205 324t-350 143v-23q-68 -8 -105 -16h6q63 0 106.5 -43 t43.5 -104t-43 -105.5t-107 -44.5q-51 0 -91 32t-52 81q-2 -27 -2 -66v-215q-2 -143 -2 -215q0 -217 115.5 -333.5t330.5 -116.5q29 0 54 2q102 57 188 163q94 115 111 220q2 36 2 317zM1559 416q-76 -223 -277 -342q246 35 277 342zM580 1120q-41 74 -123 74 q-59 0 -100.5 -42t-41.5 -99q0 -98 91 -133q65 118 174 200zM983 -8q-365 49 -381 409v68q2 55 2 70v409q0 125 -16 168q-119 -88 -186.5 -220t-67.5 -282q0 -258 184 -442t440 -180h25zM1810 1057h-12v-13h-8v13h-12v8h12v12h8v-12h12v-8zM1403 1034h-14v-12h-7v12h-12v8 h12v13h7v-13h14v-8zM926 1044h-13v-10h-8v10h-10v9h10v12h8v-12h13v-9zM1118 610h-12v-10h-8v10h-11v8h11v13h8v-13h12v-8zM975 612h-12v-10h-9v10h-12v9h12v12h9v-12h12v-9zM469 1044h-12v-10h-6v10h-13v9h13v12h6v-12h12v-9z" />
<glyph unicode="v" d="M2019 1004q0 -86 -62.5 -148.5t-148.5 -62.5q-84 0 -145 57q45 -113 45 -236q0 -264 -185.5 -448t-447.5 -184q-260 0 -445.5 185t-185.5 447q0 92 27 183q-12 -2 -27 -2q-86 0 -148.5 62.5t-62.5 148.5q0 88 62.5 153.5t150.5 59.5v30h572v-6q29 4 57 4q150 0 281 -65 q23 12 49 12h2q-39 10 -109 20v35h512v-32q88 -2 148.5 -63.5t60.5 -149.5zM2011 1004q0 86 -59.5 145t-143.5 59q-86 0 -145 -59t-59 -145q0 -25 6 -52q27 -39 45 -84q61 -68 153 -67q84 0 143.5 59.5t59.5 143.5zM1614 1092q-20 -33 -45 -80q16 -20 28 -41q-2 16 -2 33 q1 47 19 88zM1501 1090q0 41 -27.5 68.5t-68.5 27.5q-20 0 -41 -8q76 -39 137 -97v9zM1642 883q-16 25 -26 51h-2q14 -25 26 -51h2zM1501 1073q-66 59 -145 101q-47 -29 -47 -84q0 -41 28.5 -69t67.5 -28q82 0 96 80zM1038 1096q0 41 -28.5 68.5t-67.5 27.5 q-41 0 -68.5 -27.5t-27.5 -68.5q0 -39 27.5 -68t68.5 -29q39 0 67.5 29t28.5 68zM1497 1038q-31 -53 -92 -53q-43 0 -74 31t-31 74q0 55 48 88q-129 61 -273 61q-29 0 -57 -4v-21q-47 -4 -82 -14h6q43 2 74 -29.5t31 -74.5t-31 -74t-74 -31q-61 0 -92 53q6 -18 43 -106 l287 -690l209 506q42 96 108 284zM1700 614q0 131 -51 250q-33 37 -45 86q-18 27 -39 54q-27 -53 -88 -201l-340 -811q238 23 400.5 200.5t162.5 421.5zM649 1006q0 29 -8 57q-113 -109 -160 -258q72 14 120 70.5t48 130.5zM639 1071q-20 61 -73.5 100t-121.5 39 q-84 0 -143 -59t-59 -145q0 -84 59 -143.5t143 -59.5q14 0 29 2q49 153 166 266zM1102 -10l-402 960q-18 41 -53 119v0q10 -31 10 -63q0 -78 -51 -137.5t-127 -71.5q-29 -88 -28 -183q0 -260 183 -442t441 -182h27zM1823 1001h-13v-12h-8v12h-12v9h12v12h8v-12h13v-9z M1421 1085h-12v-10h-8v10h-10v9h10v12h8v-12h12v-9zM958 1098h-12v-13h-8v13h-10v6h10v14h8v-14h12v-6zM1135 610h-13v-12h-6v12h-12v6h12v13h6v-13h13v-6zM1087 612h-12v-12h-8v12h-10v6h10v15h8v-15h12v-6zM463 1008h-12v-13h-9v13h-12v8h12v12h9v-12h12v-8z" />
<glyph unicode="w" d="M2181 1047q0 -70 -49 -119t-119 -49t-119 49t-49 119q0 45 23 81q-20 -29 -37 -71l-387 -1073h-23l-78 239q-188 -240 -493 -239q-51 0 -102 8l-3 -8h-22l-4 14q-217 45 -359.5 218t-142.5 398q0 137 57 263q-18 -4 -34 -5q-70 0 -119 49.5t-49 118.5q0 70 49 119t119 49 q14 0 30 -4q-16 6 -37 10v35h508v-12q53 10 109 10q12 0 27 -2v4h526v-35q-59 -6 -94 -20h10q37 0 63.5 -25.5t26.5 -62.5q0 -74 -74 -88q145 -174 146 -404q0 -98 -29 -190l41 -125l135 399q31 92 64 185q37 115 45 186q-23 -53 -82 -53q-37 0 -62.5 26.5t-25.5 63.5 q0 35 25.5 61.5t60.5 26.5q-20 6 -94 20v35h471v-35h-15q68 0 117 -48.5t49 -118.5zM2173 1047q0 66 -46 112.5t-114 46.5q-66 0 -113 -47t-47 -112q0 -66 47.5 -113t112.5 -47q68 0 114 47t46 113zM1737 1106q0 33 -23.5 56.5t-58.5 23.5q-33 0 -56.5 -23.5t-23.5 -56.5 q0 -35 23.5 -58.5t56.5 -23.5q35 0 58.5 23.5t23.5 58.5zM1401 1106q0 33 -23.5 56.5t-58.5 23.5q-74 0 -78 -74q49 -39 88 -88q72 10 72 82zM1321 1024q-37 43 -82 78q2 -8 2 -19q17 -61 80 -59zM1473 614q0 229 -146 402h-8q-45 0 -72 37q4 -18 15 -49l184 -568 q27 88 27 178zM743 1110q0 33 -23.5 56.5t-55.5 23.5q-35 0 -58.5 -23.5t-23.5 -56.5q0 -35 23.5 -58.5t58.5 -23.5q33 0 56 23.5t23 58.5zM1079 1061q-27 80 -73 110q-39 29 -129 43v25h-27q-55 0 -109 -10v-15q-47 -6 -77 -16q37 0 62.5 -25.5t25.5 -62.5t-26 -63.5 t-62 -26.5q-74 0 -89 72q2 -33 35 -144l189 -635zM1341 231l-239 748l-352 -979q49 -8 100 -8q303 -1 491 239zM408 1067q-4 14 -11 27q6 -14 9 -29zM399 1040v7q-68 -72 -110 -160q112 36 110 153zM397 1057q-6 61 -51 102t-106 41q-68 0 -114 -47t-46 -113 q0 -68 46 -113.5t114 -45.5q18 0 39 4q44 96 118 172zM717 6l-285 981q-8 25 -20 72l-6 -4q2 -8 2 -15q0 -57 -35 -102t-90 -59q-57 -125 -58 -265q0 -221 139.5 -392t352.5 -216zM2025 1042h-12v-10h-8v10h-10v9h10v12h8v-12h12v-9zM1673 1100h-12v-13h-8v13h-13v8h13v12h8 v-12h12v-8zM1337 1100h-12v-13h-8v13h-12v8h12v12h8v-12h12v-8zM678 1108h-12v-10h-9v10h-12v8h12v12h9v-12h12v-8zM1149 616h-12v-10h-9v10h-12v9h12v12h9v-12h12v-9zM860 612h-12v-10h-8v10h-11v9h11v12h8v-12h12v-9zM258 1034h-12v-12h-8v12h-11v8h11v13h8v-13h12v-8z " />
<glyph unicode="x" d="M2017 301q0 -123 -86 -210t-209 -83v-24h-528v6q-45 -6 -90 -6q-61 0 -123 12v-12h-504v26q55 8 98 19q-25 -4 -49 -4q-121 0 -205.5 86t-84.5 206q0 106 66.5 187.5t168.5 99.5q0 66 10 125q-84 18 -139 86t-55 154q0 100 68.5 171.5t168.5 76.5v32h518v-4q31 4 62 4 q59 0 117 -10v10h467v-37h-13q119 -4 203 -89t84 -203q0 -102 -64.5 -182.5t-160.5 -102.5v-19q0 -12 -2 -24q119 -2 200.5 -87t81.5 -204zM1954 920q0 117 -84 200.5t-201 83.5q-109 0 -194 -76q115 -82 182 -204h10v12h8v-12h13v-9h-13v-10h-8v10h-6q70 -127 74 -272 q96 23 157.5 100t61.5 177zM1729 641q-12 303 -259 481q-86 -84 -86 -202q0 -119 83 -202t202 -83q29 0 60 6zM1339 1126q-2 68 -67 68q-68 0 -68 -68t68 -67q67 -1 67 67zM1077 1130q0 68 -67 68q-68 0 -68 -68t68 -67q67 -1 67 67zM1333 1081q-23 -31 -61 -30 q-31 0 -53.5 22.5t-22.5 52.5q0 31 22.5 53.5t53.5 20.5h2q-20 8 -53 12v19q-57 10 -117 10q-31 0 -62 -2v-27q-16 -2 -30 -8q31 0 52 -21.5t21 -52.5t-22.5 -53t-52.5 -22q-39 0 -62 32q10 -27 37 -77l154 -281q55 86 108 172q66 108 86 180zM1729 633q-31 -6 -60 -6 q-121 0 -207 86t-86 207q0 72 33 133q-31 -39 -88 -131l-150 -236l275 -473q-12 43 -12 88q0 121 86 207t209 86v20.5v18.5zM2011 301q0 115 -81 198t-195 87q-12 -281 -232 -459q92 -111 223 -111q117 0 201 83t84 202zM1726 586v0q-119 0 -201.5 -84t-82.5 -201 q0 -68 28 -129q14 -20 29 -39q215 177 227 453zM772 969q0 80 -47 145q-190 -145 -236 -379q23 -4 46 -4q98 0 167.5 70t69.5 168zM719 1120q-70 88 -184 88q-100 0 -170 -69.5t-70 -169.5q0 -84 53 -149.5t133 -82.5q48 236 238 383zM1038 588l-184 321q-31 55 -94 162 q20 -49 20 -102q0 -100 -71.5 -173t-173.5 -73q-25 0 -46 4q-10 -57 -10 -121q25 4 47 4q123 0 208 -86t85 -207q0 -59 -22 -114q12 18 67 106zM1286 139q-14 43 -86 170l-133 230q-20 -45 -102 -181q-66 -111 -93 -182q27 33 68 33q37 0 63.5 -26.5t26.5 -63.5t-26.5 -62.5 t-63.5 -25.5h-8q16 -6 49 -21v-6q61 -12 123 -12q45 0 90 6v12q20 4 35 8q-33 0 -54.5 22.5t-21.5 53.5t21.5 52.5t54.5 21.5q34 0 57 -29zM1294 94q0 68 -65 68q-68 0 -68 -68t68 -67q65 -1 65 67zM1022 119q0 35 -23.5 58.5t-58.5 23.5q-33 0 -56.5 -23.5t-23.5 -58.5 q0 -33 23.5 -57.5t56.5 -24.5q35 0 58.5 24.5t23.5 57.5zM811 317q0 119 -83 202t-202 83q-23 0 -47 -4q8 -299 250 -481q82 83 82 200zM723 111q-111 84 -176 206h-12v-12h-9v12h-12v9h12v12h9v-12h8q-68 127 -72 272q-98 -20 -163.5 -99t-65.5 -182q0 -117 84 -200.5 t200 -83.5q115 0 197 78zM1288 1122h-12v-12h-8v12h-13v6h13v13h8v-13h12v-6zM1028 1128h-12v-12h-8v12h-13v9h13v12h8v-12h12v-9zM1743 299h-12v-10h-9v10h-12v8h12v12h9v-12h12v-8zM549 967h-12v-13h-9v13h-12v8h12v12h9v-12h12v-8zM1241 92h-12v-12h-8v12h-11v8h11v13h8 v-13h12v-8zM956 115h-12v-11h-6v11h-12v8h12v12h6v-12h12v-8z" />
<glyph unicode="y" d="M1997 944q0 -100 -65.5 -177t-164.5 -93q4 -29 5 -58q0 -281 -209 -469q-43 -121 -170 -122q27 -6 61 -13v-28h-657v28q41 8 71 17l-8 -2q-68 0 -118 44t-62 109q-174 182 -174 436q0 29 2 58q-106 8 -179 87t-73 185q0 115 81 196t193 79h9v28h518v-6q41 6 82 6 q63 0 127 -12v12h477v-30q106 -8 180 -87t74 -188zM1989 944q0 111 -78 188.5t-189 77.5q-121 0 -200 -90q217 -166 245 -438q94 16 158 90t64 172zM1759 682q-27 268 -241 432q-61 -74 -62 -170q0 -111 78 -188.5t188 -77.5q19 0 37 4zM1397 1128q0 29 -20.5 49.5 t-49.5 20.5t-49.5 -20.5t-20.5 -49.5t20.5 -49t49.5 -20t49.5 20t20.5 49zM1051 1145q0 55 -56 55q-4 0 -10 -2q-45 -16 -45 -53q0 -55 55 -55q56 0 56 55zM1763 616q0 29 -2 58q-20 -4 -39 -4q-113 0 -193.5 80.5t-80.5 193.5q0 66 29 123q-25 -35 -50 -84l-221 -436v-207 q0 -82 4 -121q4 70 56.5 119t124.5 49q76 0 129 -53t53 -127q0 -23 -6 -45q196 184 196 454zM1401 1106q-16 -55 -74 -55q-33 0 -55.5 22.5t-22.5 54.5q0 70 70 76q-23 6 -53 10v15q-63 12 -127 12q-41 0 -82 -6v-21q-29 -4 -47 -8q49 -10 49 -61q0 -63 -64 -64 q-33 0 -53 29q8 -31 43 -104l184 -394l158 301q68 130 74 193zM1565 207q0 72 -51.5 122t-122.5 50q-72 0 -122 -50t-50 -122q0 -66 43 -115t106 -57q102 41 186 117q11 26 11 55zM1548 135q-74 -63 -164 -102h7q110 -2 157 102zM797 946q0 90 -52 156q-203 -164 -229 -422 h14q111 0 189 77.5t78 188.5zM741 1108q-82 104 -211 104q-111 0 -188.5 -77.5t-77.5 -188.5q0 -104 71 -180t175 -84q26 260 231 426zM1038 340v149l-190 418q-18 39 -55 117q12 -37 12 -78q0 -113 -81 -193.5t-194 -80.5q-6 0 -14 2q-2 -29 -2 -58q0 -244 166 -423 q-2 8 -2 16q0 76 53 128t129 52q66 0 115 -41t61 -104q2 33 2 96zM1032 209q0 72 -50 122t-122 50t-123 -50t-51 -122q0 -12 2 -27q90 -92 209 -143q59 14 97 61.5t38 108.5zM885 37q-109 49 -195 133q14 -59 61.5 -97t108.5 -38q13 0 25 2zM1737 942h-13v-12h-8v12h-12v8 h12v13h8v-13h13v-8zM1339 1124h-12v-12h-8v12h-10v6h10v15h8v-15h12v-6zM1008 1139h-13v-11h-8v11h-10v8h10v12h8v-12h13v-8zM1407 203h-12v-10h-6v10h-13v8h13v12h6v-12h12v-8zM543 944h-13v-10h-8v10h-12v8h12v13h8v-13h13v-8zM874 205h-12v-10h-8v10h-12v8h12v12h8v-12 h12v-8z" />
<glyph unicode="z" d="M1759 616q0 -127 -49 -243q-29 -219 -98 -389h-1075l-7 18l138 180q-174 182 -174 434q0 186 100 342l24 291h988l12 -20l-88 -125q229 -191 229 -488zM1751 616q0 293 -225 482l-709 -1024q31 -18 64 -33h86q360 0 493 65q-37 -12 -78 -12q-100 0 -171.5 71t-71.5 171 q0 102 71.5 173t171.5 71t172 -71t72 -173q0 -53 -24 -105q55 86 84 228l34 -4q-4 -27 -6 -49q37 99 37 210zM1026 983q0 72 -51 122t-123 50q-29 0 -57 -8h2q-47 -29 -86 -64q-33 -45 -33 -100q0 -72 51 -123t123 -51t123 51t51 123zM1618 336q0 98 -68.5 166.5 t-167.5 68.5q-98 0 -166.5 -68.5t-68.5 -166.5q0 -96 68.5 -166t166.5 -70t167 70t69 166zM1358 1188h-172q-244 0 -350 -25h16q76 0 128 -53t52 -127q0 -76 -52 -129t-128 -53t-128 53t-52 129q0 31 10 59q-39 -66 -61 -163h-33l6 63q-92 -150 -92 -326q0 -248 170 -428z M862 41q-27 12 -51 27l-16 -27h67zM864 979h-12v-10h-8v10h-10v8h10v12h8v-12h12v-8zM1397 332h-15v-10h-6v10h-12v8h12v12h6v-12h15v-8z" />
<glyph unicode="&#xa0;" />
<glyph unicode="&#x2000;" horiz-adv-x="819" />
<glyph unicode="&#x2001;" horiz-adv-x="1638" />
<glyph unicode="&#x2002;" horiz-adv-x="819" />
<glyph unicode="&#x2003;" horiz-adv-x="1638" />
<glyph unicode="&#x2004;" horiz-adv-x="546" />
<glyph unicode="&#x2005;" horiz-adv-x="409" />
<glyph unicode="&#x2006;" horiz-adv-x="273" />
<glyph unicode="&#x2007;" horiz-adv-x="273" />
<glyph unicode="&#x2008;" horiz-adv-x="204" />
<glyph unicode="&#x2009;" horiz-adv-x="327" />
<glyph unicode="&#x200a;" horiz-adv-x="91" />
<glyph unicode="&#x202f;" horiz-adv-x="327" />
<glyph unicode="&#x205f;" horiz-adv-x="409" />
<glyph unicode="&#x25fc;" horiz-adv-x="1249" d="M0 1249h1249v-1249h-1249v1249z" />
</font>
</defs>
</svg>
